<?xml version="1.0" standalone="yes"?>

<svg version="1.1" viewBox="0.0 0.0 985.5643044619422 599.9081364829397" fill="none" stroke="none" stroke-linecap="square" stroke-miterlimit="10" xmlns="http://www.w3.org/2000/svg" xmlns:xlink="http://www.w3.org/1999/xlink"><clipPath id="p.0"><path d="m0 0l985.56433 0l0 599.90814l-985.56433 0l0 -599.90814z" clip-rule="nonzero"></path></clipPath><g clip-path="url(#p.0)"><path fill="#000000" fill-opacity="0.0" d="m0 0l985.56433 0l0 599.90814l-985.56433 0z" fill-rule="nonzero"></path><path fill="#000000" fill-opacity="0.0" d="m91.238846 309.8504l803.0866 0" fill-rule="nonzero"></path><path stroke="#000000" stroke-width="2.0" stroke-linejoin="round" stroke-linecap="butt" d="m91.238846 309.8504l791.0866 0" fill-rule="evenodd"></path><path fill="#000000" stroke="#000000" stroke-width="2.0" stroke-linecap="butt" d="m882.32544 313.15387l9.076233 -3.3034668l-9.076233 -3.3034668z" fill-rule="evenodd"></path><path fill="#000000" fill-opacity="0.0" d="m91.238846 61.939632l803.0866 0" fill-rule="nonzero"></path><path stroke="#000000" stroke-width="2.0" stroke-linejoin="round" stroke-linecap="butt" d="m91.238846 61.939632l791.0866 0" fill-rule="evenodd"></path><path fill="#000000" stroke="#000000" stroke-width="2.0" stroke-linecap="butt" d="m882.32544 65.243095l9.076233 -3.303463l-9.076233 -3.303463z" fill-rule="evenodd"></path><path fill="#ffffff" d="m148.60892 84.36483l11.212601 -44.850395l218.23622 0l-11.212585 44.850395z" fill-rule="nonzero"></path><path stroke="#000000" stroke-width="2.0" stroke-linejoin="round" stroke-linecap="butt" d="m148.60892 84.36483l11.212601 -44.850395l218.23622 0l-11.212585 44.850395z" fill-rule="nonzero"></path><path fill="#000000" d="m238.29237 70.19963l-5.6875 0l0 -15.921875l5.6875 0q3.875 0 5.140625 3.09375q0.75 1.765625 0.75 4.640625q0 6.0 -3.0 7.5625q-1.1875 0.625 -2.890625 0.625zm4.0625 -8.1875q0 -4.578125 -2.046875 -5.703125q-0.828125 -0.46875 -2.015625 -0.46875l-3.921875 0l0 12.796875l3.921875 0q4.0625 0 4.0625 -6.625zm12.378876 6.765625l0.671875 -0.078125l0.046875 1.359375q-2.625 0.375 -4.484375 0.375q-2.484375 0 -3.515625 -1.4375q-1.03125 -1.4375 -1.03125 -4.484375q0 -6.046875 4.796875 -6.046875q2.328125 0 3.46875 1.3125q1.15625 1.296875 1.15625 4.078125l-0.09375 1.3125l-7.59375 0q0 1.90625 0.6875 2.828125q0.703125 0.921875 2.40625 0.921875q1.71875 0 3.484375 -0.140625zm-0.609375 -5.0q0 -2.109375 -0.6875 -2.984375q-0.671875 -0.875 -2.203125 -0.875q-1.53125 0 -2.3125 0.921875q-0.765625 0.921875 -0.78125 2.9375l5.984375 0zm7.847641 -3.765625q-2.5 0 -2.5 1.75q0 0.796875 0.5625 1.140625q0.578125 0.328125 2.625 0.6875q2.046875 0.359375 2.890625 1.0q0.859375 0.640625 0.859375 2.421875q0 1.765625 -1.140625 2.59375q-1.140625 0.828125 -3.3125 0.828125q-1.4375 0 -3.359375 -0.328125l-0.6875 -0.109375l0.078125 -1.5q2.625 0.390625 3.953125 0.390625q1.34375 0 2.046875 -0.421875q0.703125 -0.421875 0.703125 -1.421875q0 -1.0 -0.609375 -1.359375q-0.59375 -0.359375 -2.625 -0.671875q-2.015625 -0.328125 -2.875 -0.953125q-0.84375 -0.625 -0.84375 -2.296875q0 -1.6875 1.1875 -2.484375q1.1875 -0.8125 2.953125 -0.8125q1.40625 0 3.515625 0.328125l0.65625 0.109375l-0.046875 1.46875q-2.5625 -0.359375 -4.03125 -0.359375zm6.9257507 10.1875l0 -11.5l1.71875 0l0 11.5l-1.71875 0zm0 -14.09375l0 -2.0l1.71875 0l0 2.0l-1.71875 0zm9.399231 19.5q-2.765625 0 -3.859375 -0.75q-1.078125 -0.75 -1.078125 -2.71875q0 -0.953125 0.40625 -1.546875q0.421875 -0.578125 1.40625 -1.3125q-0.640625 -0.4375 -0.640625 -1.578125q0 -0.390625 0.5625 -1.453125l0.21875 -0.375q-1.828125 -0.828125 -1.828125 -3.46875q0 -3.9375 4.3125 -3.9375q1.09375 0 2.046875 0.234375l0.34375 0.0625l3.40625 -0.078125l0 1.46875l-2.1875 -0.046875q0.75 0.75 0.75 2.296875q0 2.15625 -1.078125 3.03125q-1.0625 0.859375 -3.359375 0.859375q-0.609375 0 -1.125 -0.09375q-0.40625 1.015625 -0.40625 1.3125q0 0.703125 0.4375 0.875q0.4375 0.171875 2.640625 0.171875q2.203125 0 3.171875 0.703125q0.96875 0.6875 0.96875 2.6875q0 3.65625 -5.109375 3.65625zm-3.234375 -3.609375q0 1.21875 0.671875 1.6875q0.671875 0.46875 2.5 0.46875q1.828125 0 2.625 -0.515625q0.796875 -0.5 0.796875 -1.6875q0 -1.171875 -0.578125 -1.515625q-0.578125 -0.34375 -2.25 -0.34375l-2.484375 -0.125q-0.765625 0.5625 -1.03125 0.96875q-0.25 0.421875 -0.25 1.0625zm0.15625 -9.59375q0 1.359375 0.609375 1.9375q0.609375 0.5625 2.0 0.5625q1.40625 0 2.0 -0.5625q0.609375 -0.578125 0.609375 -1.9375q0 -1.375 -0.609375 -1.953125q-0.59375 -0.578125 -2.0 -0.578125q-1.390625 0 -2.0 0.59375q-0.609375 0.578125 -0.609375 1.9375zm12.004669 7.796875l-1.71875 0l0 -11.5l1.703125 0l0 0.8125q1.859375 -1.046875 3.5625 -1.046875q2.296875 0 3.09375 1.25q0.796875 1.234375 0.796875 4.40625l0 6.078125l-1.703125 0l0 -6.03125q0 -2.390625 -0.46875 -3.265625q-0.46875 -0.890625 -2.015625 -0.890625q-0.734375 0 -1.5625 0.21875q-0.8125 0.21875 -1.25 0.421875l-0.4375 0.203125l0 9.34375z" fill-rule="nonzero"></path><path fill="#ffffff" d="m378.05774 84.36483l11.212616 -44.850395l218.23624 0l-11.2126465 44.850395z" fill-rule="nonzero"></path><path stroke="#000000" stroke-width="2.0" stroke-linejoin="round" stroke-linecap="butt" d="m378.05774 84.36483l11.212616 -44.850395l218.23624 0l-11.2126465 44.850395z" fill-rule="nonzero"></path><path fill="#000000" d="m418.72372 70.19963l0 -15.921875l1.765625 0l0 15.921875l-1.765625 0zm6.9953003 0l-1.71875 0l0 -11.5l1.703125 0l0 0.8125q1.71875 -1.046875 3.359375 -1.046875q2.140625 0 2.984375 1.171875q0.765625 -0.453125 1.96875 -0.8125q1.203125 -0.359375 2.125 -0.359375q2.296875 0 3.09375 1.234375q0.796875 1.234375 0.796875 4.421875l0 6.078125l-1.71875 0l0 -6.03125q0 -2.390625 -0.46875 -3.265625q-0.453125 -0.890625 -1.953125 -0.890625q-0.765625 0 -1.578125 0.21875q-0.796875 0.21875 -1.234375 0.421875l-0.4375 0.203125q0.3125 0.765625 0.3125 3.359375l0 5.984375l-1.734375 0l0 -5.9375q0 -2.484375 -0.453125 -3.359375q-0.4375 -0.890625 -1.953125 -0.890625q-0.734375 0 -1.515625 0.21875q-0.765625 0.21875 -1.1875 0.421875l-0.390625 0.203125l0 9.34375zm17.221832 5.109375l0 -16.609375l1.703125 0l0 0.828125q1.75 -1.0625 3.453125 -1.0625q2.1875 0 3.171875 1.390625q0.984375 1.390625 0.984375 4.59375q0 3.203125 -1.171875 4.59375q-1.15625 1.390625 -3.84375 1.390625q-1.40625 0 -2.578125 -0.25l0 5.125l-1.71875 0zm4.90625 -15.296875q-0.703125 0 -1.5 0.234375q-0.78125 0.21875 -1.25 0.453125l-0.4375 0.234375l0 7.75q1.640625 0.25 2.484375 0.25q1.875 0 2.609375 -1.046875q0.75 -1.0625 0.75 -3.453125q0 -2.40625 -0.6875 -3.40625q-0.671875 -1.015625 -1.96875 -1.015625zm7.1741943 10.1875l0 -16.515625l1.71875 0l0 16.515625l-1.71875 0zm12.905457 -1.421875l0.671875 -0.078125l0.046875 1.359375q-2.625 0.375 -4.484375 0.375q-2.484375 0 -3.515625 -1.4375q-1.03125 -1.4375 -1.03125 -4.484375q0 -6.046875 4.796875 -6.046875q2.328125 0 3.46875 1.3125q1.15625 1.296875 1.15625 4.078125l-0.09375 1.3125l-7.59375 0q0 1.90625 0.6875 2.828125q0.703125 0.921875 2.40625 0.921875q1.71875 0 3.484375 -0.140625zm-0.609375 -5.0q0 -2.109375 -0.6875 -2.984375q-0.671875 -0.875 -2.203125 -0.875q-1.53125 0 -2.3125 0.921875q-0.765625 0.921875 -0.78125 2.9375l5.984375 0zm5.9570007 6.421875l-1.71875 0l0 -11.5l1.703125 0l0 0.8125q1.71875 -1.046875 3.359375 -1.046875q2.140625 0 2.984375 1.171875q0.765625 -0.453125 1.96875 -0.8125q1.203125 -0.359375 2.125 -0.359375q2.296875 0 3.09375 1.234375q0.796875 1.234375 0.796875 4.421875l0 6.078125l-1.71875 0l0 -6.03125q0 -2.390625 -0.46875 -3.265625q-0.453125 -0.890625 -1.953125 -0.890625q-0.765625 0 -1.578125 0.21875q-0.796875 0.21875 -1.234375 0.421875l-0.4375 0.203125q0.3125 0.765625 0.3125 3.359375l0 5.984375l-1.734375 0l0 -5.9375q0 -2.484375 -0.453125 -3.359375q-0.4375 -0.890625 -1.953125 -0.890625q-0.734375 0 -1.515625 0.21875q-0.765625 0.21875 -1.1875 0.421875l-0.390625 0.203125l0 9.34375zm25.034332 -1.421875l0.671875 -0.078125l0.046875 1.359375q-2.625 0.375 -4.484375 0.375q-2.484375 0 -3.515625 -1.4375q-1.03125 -1.4375 -1.03125 -4.484375q0 -6.046875 4.796875 -6.046875q2.328125 0 3.46875 1.3125q1.15625 1.296875 1.15625 4.078125l-0.09375 1.3125l-7.59375 0q0 1.90625 0.6875 2.828125q0.703125 0.921875 2.40625 0.921875q1.71875 0 3.484375 -0.140625zm-0.609375 -5.0q0 -2.109375 -0.6875 -2.984375q-0.671875 -0.875 -2.203125 -0.875q-1.53125 0 -2.3125 0.921875q-0.765625 0.921875 -0.78125 2.9375l5.984375 0zm5.9570007 6.421875l-1.71875 0l0 -11.5l1.703125 0l0 0.8125q1.859375 -1.046875 3.5625 -1.046875q2.296875 0 3.09375 1.25q0.796875 1.234375 0.796875 4.40625l0 6.078125l-1.703125 0l0 -6.03125q0 -2.390625 -0.46875 -3.265625q-0.46875 -0.890625 -2.015625 -0.890625q-0.734375 0 -1.5625 0.21875q-0.8125 0.21875 -1.25 0.421875l-0.4375 0.203125l0 9.34375zm16.400726 -10.0l-3.65625 0l0 5.484375q0 1.984375 0.28125 2.609375q0.296875 0.625 1.375 0.625l2.046875 -0.140625l0.125 1.421875q-1.546875 0.25 -2.359375 0.25q-1.78125 0 -2.484375 -0.875q-0.6875 -0.875 -0.6875 -3.328125l0 -6.046875l-1.625 0l0 -1.5l1.625 0l0 -3.515625l1.703125 0l0 3.515625l3.65625 0l0 1.5zm10.124207 1.96875l0 5.890625q0.0625 0.859375 1.328125 1.015625l-0.0625 1.359375q-1.828125 0 -2.75 -0.921875q-2.0625 0.921875 -4.140625 0.921875q-1.578125 0 -2.40625 -0.890625q-0.828125 -0.90625 -0.828125 -2.578125q0 -1.6875 0.84375 -2.484375q0.859375 -0.796875 2.671875 -0.96875l3.609375 -0.34375l0 -1.0q0 -1.171875 -0.515625 -1.671875q-0.5 -0.515625 -1.375 -0.515625q-1.828125 0 -3.8125 0.234375l-0.703125 0.078125l-0.078125 -1.3125q2.53125 -0.515625 4.484375 -0.515625q1.953125 0 2.84375 0.90625q0.890625 0.890625 0.890625 2.796875zm-7.09375 4.703125q0 2.109375 1.75 2.109375q1.5625 0 3.078125 -0.53125l0.53125 -0.1875l0 -3.796875l-3.40625 0.328125q-1.03125 0.09375 -1.5 0.609375q-0.453125 0.5 -0.453125 1.46875zm16.272644 -6.671875l-3.65625 0l0 5.484375q0 1.984375 0.28125 2.609375q0.296875 0.625 1.375 0.625l2.046875 -0.140625l0.125 1.421875q-1.546875 0.25 -2.359375 0.25q-1.78125 0 -2.484375 -0.875q-0.6875 -0.875 -0.6875 -3.328125l0 -6.046875l-1.625 0l0 -1.5l1.625 0l0 -3.515625l1.703125 0l0 3.515625l3.65625 0l0 1.5zm1.9992065 10.0l0 -11.5l1.71875 0l0 11.5l-1.71875 0zm0 -14.09375l0 -2.0l1.71875 0l0 2.0l-1.71875 0zm4.461731 8.328125q0 -3.15625 1.125 -4.5625q1.125 -1.40625 3.796875 -1.40625q2.6875 0 3.796875 1.40625q1.125 1.40625 1.125 4.5625q0 3.140625 -1.0625 4.578125q-1.0625 1.421875 -3.875 1.421875q-2.796875 0 -3.859375 -1.421875q-1.046875 -1.4375 -1.046875 -4.578125zm1.765625 -0.03125q0 2.515625 0.609375 3.53125q0.609375 1.0 2.546875 1.0q1.953125 0 2.546875 -1.0q0.59375 -1.0 0.59375 -3.53125q0 -2.53125 -0.671875 -3.484375q-0.65625 -0.953125 -2.46875 -0.953125q-1.796875 0 -2.484375 0.953125q-0.671875 0.953125 -0.671875 3.484375zm12.415588 5.796875l-1.71875 0l0 -11.5l1.703125 0l0 0.8125q1.859375 -1.046875 3.5625 -1.046875q2.296875 0 3.09375 1.25q0.796875 1.234375 0.796875 4.40625l0 6.078125l-1.703125 0l0 -6.03125q0 -2.390625 -0.46875 -3.265625q-0.46875 -0.890625 -2.015625 -0.890625q-0.734375 0 -1.5625 0.21875q-0.8125 0.21875 -1.25 0.421875l-0.4375 0.203125l0 9.34375z" fill-rule="nonzero"></path><path fill="#ffffff" d="m607.5066 84.36483l11.212585 -44.850395l218.2362 0l-11.212585 44.850395z" fill-rule="nonzero"></path><path stroke="#000000" stroke-width="2.0" stroke-linejoin="round" stroke-linecap="butt" d="m607.5066 84.36483l11.212585 -44.850395l218.2362 0l-11.212585 44.850395z" fill-rule="nonzero"></path><path fill="#000000" d="m687.21814 55.871506l0 -1.59375l11.5 0l0 1.59375l-4.84375 0l0 14.328125l-1.75 0l0 -14.328125l-4.90625 0zm21.08905 12.90625l0.671875 -0.078125l0.046875 1.359375q-2.625 0.375 -4.484375 0.375q-2.484375 0 -3.515625 -1.4375q-1.03125 -1.4375 -1.03125 -4.484375q0 -6.046875 4.796875 -6.046875q2.328125 0 3.46875 1.3125q1.15625 1.296875 1.15625 4.078125l-0.09375 1.3125l-7.59375 0q0 1.90625 0.6875 2.828125q0.703125 0.921875 2.40625 0.921875q1.71875 0 3.484375 -0.140625zm-0.609375 -5.0q0 -2.109375 -0.6875 -2.984375q-0.671875 -0.875 -2.203125 -0.875q-1.53125 0 -2.3125 0.921875q-0.765625 0.921875 -0.78125 2.9375l5.984375 0zm7.847595 -3.765625q-2.5 0 -2.5 1.75q0 0.796875 0.5625 1.140625q0.578125 0.328125 2.625 0.6875q2.046875 0.359375 2.890625 1.0q0.859375 0.640625 0.859375 2.421875q0 1.765625 -1.140625 2.59375q-1.140625 0.828125 -3.3125 0.828125q-1.4375 0 -3.359375 -0.328125l-0.6875 -0.109375l0.078125 -1.5q2.625 0.390625 3.953125 0.390625q1.34375 0 2.046875 -0.421875q0.703125 -0.421875 0.703125 -1.421875q0 -1.0 -0.609375 -1.359375q-0.59375 -0.359375 -2.625 -0.671875q-2.015625 -0.328125 -2.875 -0.953125q-0.84375 -0.625 -0.84375 -2.296875q0 -1.6875 1.1875 -2.484375q1.1875 -0.8125 2.953125 -0.8125q1.40625 0 3.515625 0.328125l0.65625 0.109375l-0.046875 1.46875q-2.5625 -0.359375 -4.03125 -0.359375zm12.878906 0.1875l-3.65625 0l0 5.484375q0 1.984375 0.28125 2.609375q0.296875 0.625 1.375 0.625l2.046875 -0.140625l0.125 1.421875q-1.546875 0.25 -2.359375 0.25q-1.78125 0 -2.484375 -0.875q-0.6875 -0.875 -0.6875 -3.328125l0 -6.046875l-1.625 0l0 -1.5l1.625 0l0 -3.515625l1.703125 0l0 3.515625l3.65625 0l0 1.5zm1.9992065 10.0l0 -11.5l1.71875 0l0 11.5l-1.71875 0zm0 -14.09375l0 -2.0l1.71875 0l0 2.0l-1.71875 0zm6.680481 14.09375l-1.71875 0l0 -11.5l1.703125 0l0 0.8125q1.859375 -1.046875 3.5625 -1.046875q2.296875 0 3.09375 1.25q0.796875 1.234375 0.796875 4.40625l0 6.078125l-1.703125 0l0 -6.03125q0 -2.390625 -0.46875 -3.265625q-0.46875 -0.890625 -2.015625 -0.890625q-0.734375 0 -1.5625 0.21875q-0.8125 0.21875 -1.25 0.421875l-0.4375 0.203125l0 9.34375zm14.885132 5.40625q-2.765625 0 -3.859375 -0.75q-1.078125 -0.75 -1.078125 -2.71875q0 -0.953125 0.40625 -1.546875q0.421875 -0.578125 1.40625 -1.3125q-0.640625 -0.4375 -0.640625 -1.578125q0 -0.390625 0.5625 -1.453125l0.21875 -0.375q-1.828125 -0.828125 -1.828125 -3.46875q0 -3.9375 4.3125 -3.9375q1.09375 0 2.046875 0.234375l0.34375 0.0625l3.40625 -0.078125l0 1.46875l-2.1875 -0.046875q0.75 0.75 0.75 2.296875q0 2.15625 -1.078125 3.03125q-1.0625 0.859375 -3.359375 0.859375q-0.609375 0 -1.125 -0.09375q-0.40625 1.015625 -0.40625 1.3125q0 0.703125 0.4375 0.875q0.4375 0.171875 2.640625 0.171875q2.203125 0 3.171875 0.703125q0.96875 0.6875 0.96875 2.6875q0 3.65625 -5.109375 3.65625zm-3.234375 -3.609375q0 1.21875 0.671875 1.6875q0.671875 0.46875 2.5 0.46875q1.828125 0 2.625 -0.515625q0.796875 -0.5 0.796875 -1.6875q0 -1.171875 -0.578125 -1.515625q-0.578125 -0.34375 -2.25 -0.34375l-2.484375 -0.125q-0.765625 0.5625 -1.03125 0.96875q-0.25 0.421875 -0.25 1.0625zm0.15625 -9.59375q0 1.359375 0.609375 1.9375q0.609375 0.5625 2.0 0.5625q1.40625 0 2.0 -0.5625q0.609375 -0.578125 0.609375 -1.9375q0 -1.375 -0.609375 -1.953125q-0.59375 -0.578125 -2.0 -0.578125q-1.390625 0 -2.0 0.59375q-0.609375 0.578125 -0.609375 1.9375z" fill-rule="nonzero"></path><path fill="#ffffff" d="m213.2231 94.90551l122.645676 0c3.0517578E-4 0 6.1035156E-4 1.296997E-4 8.544922E-4 3.5858154E-4c2.1362305E-4 2.2125244E-4 3.3569336E-4 5.340576E-4 3.3569336E-4 8.544922E-4l-0.0011901855 22.423988l0 0c0 12.385094 -10.0401 22.425194 -22.425201 22.425194l-122.645676 0l0 0c-6.713867E-4 0 -0.0012054443 -5.340576E-4 -0.0012054443 -0.0012054443l0.0012054443 -22.423988l0 0c0 -12.385094 10.0401 -22.425201 22.425201 -22.425201z" fill-rule="nonzero"></path><path stroke="#000000" stroke-width="2.0" stroke-linejoin="round" stroke-linecap="butt" d="m213.2231 94.90551l122.645676 0c3.0517578E-4 0 6.1035156E-4 1.296997E-4 8.544922E-4 3.5858154E-4c2.1362305E-4 2.2125244E-4 3.3569336E-4 5.340576E-4 3.3569336E-4 8.544922E-4l-0.0011901855 22.423988l0 0c0 12.385094 -10.0401 22.425194 -22.425201 22.425194l-122.645676 0l0 0c-6.713867E-4 0 -0.0012054443 -5.340576E-4 -0.0012054443 -0.0012054443l0.0012054443 -22.423988l0 0c0 -12.385094 10.0401 -22.425201 22.425201 -22.425201z" fill-rule="nonzero"></path><path fill="#000000" d="m233.78429 125.870705l0 -16.609375l3.328125 0l4.703125 14.046875l4.703125 -14.046875l3.34375 0l0 16.609375l-1.859375 0l0 -14.640625l-0.328125 0l-4.828125 14.046875l-2.0625 0l-4.828125 -14.046875l-0.328125 0l0 14.640625l-1.84375 0zm19.316193 -6.015625q0 -3.296875 1.171875 -4.75q1.171875 -1.46875 3.9687653 -1.46875q2.796875 0 3.953125 1.46875q1.171875 1.453125 1.171875 4.75q0 3.28125 -1.109375 4.765625q-1.09375 1.484375 -4.03125 1.484375q-2.9218903 0 -4.0312653 -1.484375q-1.09375 -1.484375 -1.09375 -4.765625zm1.84375 -0.046875q0 2.625 0.625 3.6875q0.64064026 1.0625 2.6718903 1.0625q2.03125 0 2.65625 -1.046875q0.625 -1.046875 0.625 -3.6875q0 -2.640625 -0.703125 -3.640625q-0.6875 -1.0 -2.578125 -1.0q-1.875 0 -2.5937653 1.0q-0.703125 1.0 -0.703125 3.625zm20.562607 -11.171875l0 17.234375l-1.765625 0l0 -0.8125q-1.859375 1.046875 -3.65625 1.046875q-0.953125 0 -1.671875 -0.234375q-0.71875 -0.234375 -1.34375 -0.859375q-1.296875 -1.296875 -1.296875 -4.78125q0 -3.5 1.15625 -5.046875q1.171875 -1.546875 3.859375 -1.546875q1.390625 0 2.953125 0.3125l0 -5.3125l1.765625 0zm-7.046875 15.078125q0.375 0.453125 0.8125 0.625q0.4375 0.15625 1.109375 0.15625q0.6875 0 1.53125 -0.21875q0.859375 -0.234375 1.34375 -0.453125l0.484375 -0.203125l0 -8.140625q-1.546875 -0.296875 -2.859375 -0.296875q-1.828125 0 -2.546875 1.171875q-0.71875 1.15625 -0.71875 3.609375q0 2.78125 0.84375 3.75zm18.695953 0.671875l0.6875 -0.078125l0.046875 1.421875q-2.734375 0.375 -4.671875 0.375q-2.59375 0 -3.671875 -1.5q-1.078125 -1.5 -1.078125 -4.65625q0 -6.3125 5.015625 -6.3125q2.421875 0 3.625 1.359375q1.203125 1.34375 1.203125 4.25l-0.109375 1.375l-7.90625 0q0 1.984375 0.71875 2.953125q0.71875 0.953125 2.5 0.953125q1.796875 0 3.640625 -0.140625zm-0.65625 -5.21875q0 -2.203125 -0.703125 -3.109375q-0.703125 -0.921875 -2.3125 -0.921875q-1.59375 0 -2.390625 0.96875q-0.796875 0.953125 -0.828125 3.0625l6.234375 0zm4.7605896 6.703125l0 -17.234375l1.796875 0l0 17.234375l-1.796875 0z" fill-rule="nonzero"></path><path fill="#ffffff" d="m442.6719 94.90551l122.64566 0c3.6621094E-4 0 6.713867E-4 1.296997E-4 8.544922E-4 3.5858154E-4c2.4414062E-4 2.2125244E-4 3.6621094E-4 5.340576E-4 3.6621094E-4 8.544922E-4l-0.0012207031 22.423988l0 0c0 12.385094 -10.0401 22.425194 -22.42517 22.425194l-122.64569 0l0 0c-6.4086914E-4 0 -0.0011901855 -5.340576E-4 -0.0011901855 -0.0012054443l0.0011901855 -22.423988l0 0c0 -12.385094 10.040131 -22.425201 22.425201 -22.425201z" fill-rule="nonzero"></path><path stroke="#000000" stroke-width="2.0" stroke-linejoin="round" stroke-linecap="butt" d="m442.6719 94.90551l122.64566 0c3.6621094E-4 0 6.713867E-4 1.296997E-4 8.544922E-4 3.5858154E-4c2.4414062E-4 2.2125244E-4 3.6621094E-4 5.340576E-4 3.6621094E-4 8.544922E-4l-0.0012207031 22.423988l0 0c0 12.385094 -10.0401 22.425194 -22.42517 22.425194l-122.64569 0l0 0c-6.4086914E-4 0 -0.0011901855 -5.340576E-4 -0.0011901855 -0.0012054443l0.0011901855 -22.423988l0 0c0 -12.385094 10.040131 -22.425201 22.425201 -22.425201z" fill-rule="nonzero"></path><path fill="#000000" d="m479.58835 125.60508q-2.484375 0.5 -4.453125 0.5q-1.96875 0 -3.1875 -0.53125q-1.203125 -0.546875 -1.859375 -1.6875q-0.65625 -1.140625 -0.90625 -2.609375q-0.25 -1.484375 -0.25 -3.6875q0 -2.203125 0.25 -3.703125q0.25 -1.5 0.90625 -2.65625q0.65625 -1.15625 1.859375 -1.671875q1.203125 -0.53125 3.125 -0.53125q1.921875 0 4.515625 0.53125l-0.078125 1.546875q-2.421875 -0.421875 -4.3125 -0.421875q-2.640625 0 -3.5 1.578125q-0.84375 1.5625 -0.84375 5.359375q0 1.890625 0.140625 3.046875q0.15625 1.140625 0.609375 2.078125q0.46875 0.921875 1.34375 1.3125q0.875 0.390625 2.5625 0.390625q1.703125 0 4.0 -0.421875l0.078125 1.578125zm2.1809692 -5.75q0 -3.296875 1.171875 -4.75q1.171875 -1.46875 3.96875 -1.46875q2.796875 0 3.953125 1.46875q1.171875 1.453125 1.171875 4.75q0 3.28125 -1.109375 4.765625q-1.09375 1.484375 -4.03125 1.484375q-2.921875 0 -4.03125 -1.484375q-1.09375 -1.484375 -1.09375 -4.765625zm1.84375 -0.046875q0 2.625 0.625 3.6875q0.640625 1.0625 2.671875 1.0625q2.03125 0 2.65625 -1.046875q0.625 -1.046875 0.625 -3.6875q0 -2.640625 -0.703125 -3.640625q-0.6875 -1.0 -2.578125 -1.0q-1.875 0 -2.59375 1.0q-0.703125 1.0 -0.703125 3.625zm20.562592 -11.171875l0 17.234375l-1.765625 0l0 -0.8125q-1.859375 1.046875 -3.65625 1.046875q-0.953125 0 -1.671875 -0.234375q-0.71875 -0.234375 -1.34375 -0.859375q-1.296875 -1.296875 -1.296875 -4.78125q0 -3.5 1.15625 -5.046875q1.171875 -1.546875 3.859375 -1.546875q1.390625 0 2.953125 0.3125l0 -5.3125l1.765625 0zm-7.046875 15.078125q0.375 0.453125 0.8125 0.625q0.4375 0.15625 1.109375 0.15625q0.6875 0 1.53125 -0.21875q0.859375 -0.234375 1.34375 -0.453125l0.484375 -0.203125l0 -8.140625q-1.546875 -0.296875 -2.859375 -0.296875q-1.828125 0 -2.546875 1.171875q-0.71875 1.15625 -0.71875 3.609375q0 2.78125 0.84375 3.75zm18.695984 0.671875l0.6875 -0.078125l0.046875 1.421875q-2.734375 0.375 -4.6719055 0.375q-2.59375 0 -3.671875 -1.5q-1.078125 -1.5 -1.078125 -4.65625q0 -6.3125 5.0156555 -6.3125q2.421875 0 3.625 1.359375q1.203125 1.34375 1.203125 4.25l-0.109375 1.375l-7.9062805 0q0 1.984375 0.71875 2.953125q0.71875 0.953125 2.5000305 0.953125q1.796875 0 3.640625 -0.140625zm-0.65625 -5.21875q0 -2.203125 -0.703125 -3.109375q-0.703125 -0.921875 -2.3125 -0.921875q-1.5937805 0 -2.3906555 0.96875q-0.796875 0.953125 -0.828125 3.0625l6.2344055 0z" fill-rule="nonzero"></path><path fill="#000000" fill-opacity="0.0" d="m380.51443 309.8504l0 0c0 -62.003754 50.263977 -112.26773 112.26773 -112.26773l0 0c29.775208 0 58.330994 11.828171 79.385254 32.88246c21.05426 21.054276 32.882446 49.61 32.882446 79.38527l0 0c0 62.003754 -50.263977 112.2677 -112.2677 112.2677l0 0c-62.003754 0 -112.26773 -50.263947 -112.26773 -112.2677z" fill-rule="nonzero"></path><path stroke="#000000" stroke-width="1.0" stroke-linejoin="round" stroke-linecap="butt" stroke-dasharray="4.0,3.0" d="m380.51443 309.8504l0 0c0 -62.003754 50.263977 -112.26773 112.26773 -112.26773l0 0c29.775208 0 58.330994 11.828171 79.385254 32.88246c21.05426 21.054276 32.882446 49.61 32.882446 79.38527l0 0c0 62.003754 -50.263977 112.2677 -112.2677 112.2677l0 0c-62.003754 0 -112.26773 -50.263947 -112.26773 -112.2677z" fill-rule="nonzero"></path><path fill="#ffffff" d="m395.2861 309.8504l0 0c0 -53.84561 43.65045 -97.49608 97.49606 -97.49608l0 0c25.857544 0 50.656067 10.271881 68.940125 28.555939c18.284058 18.284073 28.555908 43.082565 28.555908 68.94014l0 0c0 53.84558 -43.65045 97.49606 -97.49603 97.49606l0 0c-53.84561 0 -97.49606 -43.650482 -97.49606 -97.49606z" fill-rule="nonzero"></path><path stroke="#000000" stroke-width="2.0" stroke-linejoin="round" stroke-linecap="butt" d="m395.2861 309.8504l0 0c0 -53.84561 43.65045 -97.49608 97.49606 -97.49608l0 0c25.857544 0 50.656067 10.271881 68.940125 28.555939c18.284058 18.284073 28.555908 43.082565 28.555908 68.94014l0 0c0 53.84558 -43.65045 97.49606 -97.49603 97.49606l0 0c-53.84561 0 -97.49606 -43.650482 -97.49606 -97.49606z" fill-rule="nonzero"></path><path fill="#000000" d="m436.12045 318.39038l4.5625 -16.609375l4.03125 0l4.5625 16.609375l-1.828125 0l-1.203125 -4.265625l-7.109375 0l-1.1875 4.265625l-1.828125 0zm5.953125 -15.03125l-2.515625 9.109375l6.28125 0l-2.515625 -9.109375l-1.25 0zm9.50708 15.03125l0 -12.0l1.765625 0l0 1.625q2.09375 -1.4375 4.390625 -1.890625l0 1.828125q-1.0 0.1875 -2.09375 0.59375q-1.09375 0.40625 -1.671875 0.71875l-0.59375 0.3125l0 8.8125l-1.796875 0zm12.788361 -12.234375q0.796875 0 2.6875 0.28125l0.578125 0.078125l-0.078125 1.453125q-1.921875 -0.203125 -2.828125 -0.203125q-2.046875 0 -2.78125 0.96875q-0.71875 0.96875 -0.71875 3.59375q0 2.625 0.671875 3.65625q0.6875 1.03125 2.84375 1.03125l2.84375 -0.203125l0.0625 1.484375q-2.234375 0.328125 -3.328125 0.328125q-2.8125 0 -3.890625 -1.4375q-1.0625 -1.4375 -1.0625 -4.859375q0 -3.421875 1.15625 -4.796875q1.15625 -1.375 3.84375 -1.375zm7.7764587 12.234375l-1.796875 0l0 -17.234375l1.796875 0l0 5.90625q1.921875 -0.90625 3.6875 -0.90625q2.40625 0 3.234375 1.296875q0.828125 1.296875 0.828125 4.59375l0 6.34375l-1.796875 0l0 -6.28125q0 -2.5 -0.5 -3.421875q-0.484375 -0.921875 -2.078125 -0.921875q-1.5 0 -2.921875 0.546875l-0.453125 0.171875l0 9.90625zm13.38797 -10.4375l0 10.4375l-1.796875 0l0 -10.4375l-1.515625 0l0 -1.5625l1.515625 0l0 -1.078125q0 -2.546875 0.71875 -3.46875q0.71875 -0.921875 2.515625 -0.921875l2.4218445 0.171875l-0.015625 1.484375q-1.34375 -0.046875 -2.2187195 -0.046875q-0.875 0 -1.25 0.578125q-0.375 0.5625 -0.375 2.21875l0 1.0625l3.4843445 0l0 1.5625l-3.4843445 0zm14.115814 2.0625l0 6.140625q0.0625 0.890625 1.390625 1.0625l-0.078125 1.40625q-1.890625 0 -2.859375 -0.953125q-2.15625 0.953125 -4.3125 0.953125q-1.65625 0 -2.53125 -0.921875q-0.859375 -0.9375 -0.859375 -2.6875q0 -1.765625 0.890625 -2.59375q0.890625 -0.828125 2.78125 -1.015625l3.78125 -0.359375l0 -1.03125q0 -1.21875 -0.53125 -1.75q-0.53125 -0.53125 -1.4375 -0.53125q-1.921875 0 -3.984375 0.234375l-0.75 0.078125l-0.078125 -1.375q2.640625 -0.515625 4.6875 -0.515625q2.046875 0 2.96875 0.9375q0.921875 0.921875 0.921875 2.921875zm-7.390625 4.890625q0 2.21875 1.8125 2.21875q1.640625 0 3.21875 -0.5625l0.5625 -0.1875l0 -3.953125l-3.5625 0.328125q-1.078125 0.09375 -1.5625 0.625q-0.46875 0.53125 -0.46875 1.53125zm15.430237 -8.75q0.796875 0 2.6875 0.28125l0.578125 0.078125l-0.078125 1.453125q-1.921875 -0.203125 -2.828125 -0.203125q-2.046875 0 -2.78125 0.96875q-0.71875 0.96875 -0.71875 3.59375q0 2.625 0.671875 3.65625q0.6875 1.03125 2.84375 1.03125l2.84375 -0.203125l0.0625 1.484375q-2.234375 0.328125 -3.328125 0.328125q-2.8125 0 -3.890625 -1.4375q-1.0625 -1.4375 -1.0625 -4.859375q0 -3.421875 1.15625 -4.796875q1.15625 -1.375 3.84375 -1.375zm14.135834 10.75l0.6875 -0.078125l0.046875 1.421875q-2.734375 0.375 -4.671875 0.375q-2.59375 0 -3.671875 -1.5q-1.078125 -1.5 -1.078125 -4.65625q0 -6.3125 5.015625 -6.3125q2.421875 0 3.625 1.359375q1.203125 1.34375 1.203125 4.25l-0.109375 1.375l-7.90625 0q0 1.984375 0.71875 2.953125q0.71875 0.953125 2.5 0.953125q1.796875 0 3.640625 -0.140625zm-0.65625 -5.21875q0 -2.203125 -0.703125 -3.109375q-0.703125 -0.921875 -2.3125 -0.921875q-1.59375 0 -2.390625 0.96875q-0.796875 0.953125 -0.828125 3.0625l6.234375 0zm4.51062 0.9375l0 -1.671875l7.28125 0l0 1.671875l-7.28125 0zm12.652588 0.78125q0 3.59375 3.890625 3.59375q2.015625 0 3.03125 -0.84375q1.03125 -0.859375 1.03125 -2.75l0 -11.625l1.8125 0l0 11.5625q0 2.796875 -1.484375 4.046875q-1.46875 1.234375 -4.34375 1.234375q-2.875 0 -4.328125 -1.234375q-1.453125 -1.25 -1.453125 -4.046875l0 -11.5625l1.84375 0l0 11.625z" fill-rule="nonzero"></path><path fill="#000000" fill-opacity="0.0" d="m587.7113 346.77692l27.370056 0l0 30.047241l27.370056 0" fill-rule="nonzero"></path><path stroke="#000000" stroke-width="2.0" stroke-linejoin="round" stroke-linecap="butt" stroke-dasharray="8.0,6.0" d="m587.7113 346.77692l27.370056 0l0 30.047241l27.370056 0" fill-rule="nonzero"></path><path fill="#000000" fill-opacity="0.0" d="m423.842 240.91026c0 -24.870987 -40.125977 -37.096313 -80.25195 -49.74199c-40.125977 -12.645676 -80.25198 -25.711685 -80.25198 -51.423355" fill-rule="nonzero"></path><path stroke="#000000" stroke-width="2.0" stroke-linejoin="round" stroke-linecap="butt" stroke-dasharray="2.0,6.0" d="m420.61438 229.35248l-0.12472534 -0.21195984c-0.19696045 -0.3267212 -0.4020996 -0.65089417 -0.6151428 -0.9725952c-0.8522949 -1.2867737 -1.8319397 -2.5336914 -2.9291382 -3.7440033c-4.388794 -4.841202 -10.658478 -9.096191 -18.182098 -12.969147c-15.047241 -7.745926 -35.11023 -13.963669 -55.173218 -20.286514c-20.062988 -6.32283 -40.125977 -12.750748 -55.173218 -20.81192c-7.5236206 -4.0305786 -13.793304 -8.469482 -18.182098 -13.507706c-1.0971985 -1.259552 -2.0768433 -2.5565796 -2.9291077 -3.894043c-0.21307373 -0.3343506 -0.41818237 -0.6712494 -0.61517334 -1.0107117c-0.09851074 -0.16973877 -0.1949768 -0.3401184 -0.2894287 -0.5111389l-0.04019165 -0.07476807" fill-rule="evenodd"></path><path fill="#000000" stroke="#000000" stroke-width="2.0" stroke-linecap="butt" d="m417.43265 230.24103l5.6229553 7.85318l0.7404785 -9.630249z" fill-rule="evenodd"></path><path fill="#000000" stroke="#000000" stroke-width="2.0" stroke-linecap="butt" d="m269.55777 150.52585l-5.483185 -7.9514008l-0.91070557 9.615646z" fill-rule="evenodd"></path><path fill="#000000" fill-opacity="0.0" d="m492.78217 212.35432c0 -18.149597 0.01574707 -27.224396 0.03149414 -36.29921c0.01574707 -9.074799 0.03149414 -18.149597 0.03149414 -36.29921" fill-rule="nonzero"></path><path stroke="#000000" stroke-width="2.0" stroke-linejoin="round" stroke-linecap="butt" stroke-dasharray="2.0,6.0" d="m492.78485 200.35432l0 -0.052459717c0.001739502 -3.5448456 0.004180908 -6.664322 0.0071411133 -9.500198c0.00592041 -5.6717377 0.013793945 -10.209152 0.02166748 -14.7465515c0.007873535 -4.5373993 0.01574707 -9.074799 0.021636963 -14.7465515c0.002960205 -2.8358765 0.005432129 -5.9553375 0.0071411133 -9.500183l0 -0.052474976" fill-rule="evenodd"></path><path fill="#000000" stroke="#000000" stroke-width="2.0" stroke-linecap="butt" d="m489.48138 200.35359l3.301422 9.076935l3.3055115 -9.075455z" fill-rule="evenodd"></path><path fill="#000000" stroke="#000000" stroke-width="2.0" stroke-linecap="butt" d="m496.1459 151.75665l-3.301422 -9.07695l-3.3055115 9.075455z" fill-rule="evenodd"></path><path fill="#000000" fill-opacity="0.0" d="m561.7223 240.91026c0 -15.640381 50.8031 -20.956009 108.60736 -31.280762c57.80426 -10.324753 122.60962 -25.65863 108.60736 -46.154892c-14.002258 -20.496262 -106.81207 -46.154892 -213.6242 -46.154892" fill-rule="nonzero"></path><path stroke="#000000" stroke-width="2.0" stroke-linejoin="round" stroke-linecap="butt" stroke-dasharray="2.0,6.0" d="m569.2556 231.56958l0.2748413 -0.15240479c0.33447266 -0.18191528 0.678833 -0.36219788 1.032959 -0.5408783c5.6660156 -2.8591156 13.822754 -5.3125 23.78595 -7.599762c19.92633 -4.5745544 47.078125 -8.484665 75.980286 -13.647049c57.8042 -10.324738 122.60956 -25.65863 108.60736 -46.154877c-7.0011597 -10.248123 -33.704163 -21.78685 -72.00836 -30.76355c-19.15216 -4.4883423 -41.20459 -8.336174 -65.144775 -11.061928c-11.970032 -1.3628769 -24.412048 -2.4452286 -37.199463 -3.1868591c-6.3936768 -0.3708191 -12.873718 -0.656456 -19.424194 -0.8493881c-1.6376343 -0.04824066 -3.2797241 -0.090675354 -4.9259033 -0.1272049c-0.8231201 -0.01826477 -1.6472778 -0.03504944 -2.472412 -0.050346375l-0.44958496 -0.007499695" fill-rule="evenodd"></path><path fill="#000000" stroke="#000000" stroke-width="2.0" stroke-linecap="butt" d="m566.68427 229.49573l-3.1264648 9.138672l8.269226 -4.990982z" fill-rule="evenodd"></path><path fill="#000000" stroke="#000000" stroke-width="2.0" stroke-linecap="butt" d="m577.3421 114.1245l-9.105591 3.2215652l9.046082 3.3851013z" fill-rule="evenodd"></path><path fill="#000000" fill-opacity="0.0" d="m625.3097 338.90552l245.25989 0l0 83.212585l-245.25989 0z" fill-rule="nonzero"></path><path fill="#000000" d="m650.51276 376.43182l3.609375 -13.140625l3.203125 0l3.609375 13.140625l-1.453125 0l-0.953125 -3.375l-5.625 0l-0.9375 3.375l-1.453125 0zm4.71875 -11.890625l-2.0 7.203125l4.984375 0l-2.0 -7.203125l-0.984375 0zm11.426636 11.890625l0 -9.5l1.421875 0l0 9.5l-1.421875 0zm0 -11.640625l0 -1.65625l1.421875 0l0 1.65625l-1.421875 0zm5.5075684 11.640625l-1.421875 0l0 -9.5l1.40625 0l0 0.671875q1.53125 -0.859375 2.9375 -0.859375q1.90625 0 2.5625 1.03125q0.65625 1.015625 0.65625 3.640625l0 5.015625l-1.40625 0l0 -4.984375q0 -1.96875 -0.390625 -2.703125q-0.390625 -0.734375 -1.671875 -0.734375q-0.609375 0 -1.28125 0.1875q-0.671875 0.171875 -1.03125 0.34375l-0.359375 0.171875l0 7.71875zm13.502808 -8.265625l-3.015625 0l0 4.546875q0 1.625 0.234375 2.140625q0.25 0.515625 1.140625 0.515625l1.6875 -0.109375l0.09375 1.171875q-1.265625 0.203125 -1.9375 0.203125q-1.484375 0 -2.0625 -0.71875q-0.5625 -0.71875 -0.5625 -2.75l0 -5.0l-1.34375 0l0 -1.234375l1.34375 0l0 -2.90625l1.40625 0l0 2.90625l3.015625 0l0 1.234375zm8.095215 7.09375l0.546875 -0.0625l0.046875 1.125q-2.171875 0.296875 -3.703125 0.296875q-2.0625 0 -2.921875 -1.1875q-0.84375 -1.1875 -0.84375 -3.6875q0 -5.0 3.96875 -5.0q1.921875 0 2.859375 1.078125q0.953125 1.0625 0.953125 3.359375l-0.078125 1.09375l-6.265625 0q0 1.578125 0.5625 2.34375q0.578125 0.75 1.984375 0.75q1.421875 0 2.890625 -0.109375zm-0.515625 -4.125q0 -1.75 -0.5625 -2.46875q-0.5625 -0.734375 -1.828125 -0.734375q-1.25 0 -1.890625 0.765625q-0.640625 0.765625 -0.65625 2.4375l4.9375 0zm3.4838867 5.296875l0 -9.5l1.40625 0l0 1.296875q1.640625 -1.140625 3.46875 -1.5l0 1.4375q-0.796875 0.15625 -1.671875 0.484375q-0.859375 0.3125 -1.3125 0.5625l-0.46875 0.25l0 6.96875l-1.421875 0zm8.267578 -8.265625l0 8.265625l-1.421875 0l0 -8.265625l-1.203125 0l0 -1.234375l1.203125 0l0 -0.859375q0 -2.015625 0.5625 -2.734375q0.578125 -0.734375 2.0 -0.734375l1.921875 0.125l-0.015625 1.1875q-1.0625 -0.046875 -1.765625 -0.046875q-0.6875 0 -0.984375 0.46875q-0.296875 0.453125 -0.296875 1.75l0 0.84375l2.765625 0l0 1.234375l-2.765625 0zm11.065796 1.640625l0 4.859375q0.046875 0.703125 1.09375 0.828125l-0.046875 1.125q-1.5 0 -2.265625 -0.75q-1.703125 0.75 -3.421875 0.75q-1.3125 0 -2.0 -0.734375q-0.671875 -0.75 -0.671875 -2.125q0 -1.390625 0.703125 -2.046875q0.703125 -0.65625 2.203125 -0.8125l2.984375 -0.28125l0 -0.8125q0 -0.96875 -0.421875 -1.390625q-0.421875 -0.421875 -1.140625 -0.421875q-1.515625 0 -3.15625 0.1875l-0.59375 0.0625l-0.046875 -1.078125q2.078125 -0.421875 3.6875 -0.421875q1.625 0 2.359375 0.75q0.734375 0.734375 0.734375 2.3125zm-5.859375 3.875q0 1.75 1.453125 1.75q1.28125 0 2.546875 -0.4375l0.4375 -0.15625l0 -3.140625l-2.8125 0.265625q-0.859375 0.078125 -1.25 0.5q-0.375 0.421875 -0.375 1.21875zm12.049927 -6.9375q0.625 0 2.125 0.21875l0.453125 0.0625l-0.046875 1.15625q-1.53125 -0.171875 -2.25 -0.171875q-1.609375 0 -2.1875 0.78125q-0.578125 0.765625 -0.578125 2.84375q0 2.078125 0.53125 2.90625q0.546875 0.8125 2.25 0.8125l2.25 -0.171875l0.0625 1.171875q-1.78125 0.265625 -2.640625 0.265625q-2.234375 0 -3.078125 -1.140625q-0.84375 -1.140625 -0.84375 -3.84375q0 -2.703125 0.90625 -3.796875q0.921875 -1.09375 3.046875 -1.09375zm11.040405 8.515625l0.546875 -0.0625l0.046875 1.125q-2.171875 0.296875 -3.703125 0.296875q-2.0625 0 -2.921875 -1.1875q-0.84375 -1.1875 -0.84375 -3.6875q0 -5.0 3.96875 -5.0q1.921875 0 2.859375 1.078125q0.953125 1.0625 0.953125 3.359375l-0.078125 1.09375l-6.265625 0q0 1.578125 0.5625 2.34375q0.578125 0.75 1.984375 0.75q1.421875 0 2.890625 -0.109375zm-0.515625 -4.125q0 -1.75 -0.5625 -2.46875q-0.5625 -0.734375 -1.828125 -0.734375q-1.25 0 -1.890625 0.765625q-0.640625 0.765625 -0.65625 2.4375l4.9375 0zm12.494507 -2.96875l-3.015625 0l0 4.546875q0 1.625 0.234375 2.140625q0.25 0.515625 1.140625 0.515625l1.6875 -0.109375l0.09375 1.171875q-1.265625 0.203125 -1.9375 0.203125q-1.484375 0 -2.0625 -0.71875q-0.5625 -0.71875 -0.5625 -2.75l0 -5.0l-1.34375 0l0 -1.234375l1.34375 0l0 -2.90625l1.40625 0l0 2.90625l3.015625 0l0 1.234375zm3.0639648 8.265625l-1.421875 0l0 -13.640625l1.421875 0l0 4.671875q1.515625 -0.71875 2.921875 -0.71875q1.90625 0 2.5625 1.03125q0.65625 1.015625 0.65625 3.640625l0 5.015625l-1.4375 0l0 -4.984375q0 -1.96875 -0.390625 -2.703125q-0.390625 -0.734375 -1.640625 -0.734375q-1.1875 0 -2.3125 0.4375l-0.359375 0.140625l0 7.84375zm15.299622 -6.625l0 4.859375q0.046875 0.703125 1.09375 0.828125l-0.046875 1.125q-1.5 0 -2.265625 -0.75q-1.703125 0.75 -3.421875 0.75q-1.3125 0 -2.0 -0.734375q-0.671875 -0.75 -0.671875 -2.125q0 -1.390625 0.703125 -2.046875q0.703125 -0.65625 2.203125 -0.8125l2.984375 -0.28125l0 -0.8125q0 -0.96875 -0.421875 -1.390625q-0.421875 -0.421875 -1.140625 -0.421875q-1.515625 0 -3.15625 0.1875l-0.59375 0.0625l-0.046875 -1.078125q2.078125 -0.421875 3.6875 -0.421875q1.625 0 2.359375 0.75q0.734375 0.734375 0.734375 2.3125zm-5.859375 3.875q0 1.75 1.453125 1.75q1.28125 0 2.546875 -0.4375l0.4375 -0.15625l0 -3.140625l-2.8125 0.265625q-0.859375 0.078125 -1.25 0.5q-0.375 0.421875 -0.375 1.21875zm13.409302 -5.515625l-3.015625 0l0 4.546875q0 1.625 0.234375 2.140625q0.25 0.515625 1.140625 0.515625l1.6875 -0.109375l0.09375 1.171875q-1.265625 0.203125 -1.9375 0.203125q-1.484375 0 -2.0625 -0.71875q-0.5625 -0.71875 -0.5625 -2.75l0 -5.0l-1.34375 0l0 -1.234375l1.34375 0l0 -2.90625l1.40625 0l0 2.90625l3.015625 0l0 1.234375zm5.74646 8.265625l0 -9.5l1.421875 0l0 9.5l-1.421875 0zm0 -11.640625l0 -1.65625l1.421875 0l0 1.65625l-1.421875 0zm7.0545044 3.21875q-2.0625 0 -2.0625 1.453125q0 0.65625 0.46875 0.9375q0.484375 0.28125 2.171875 0.578125q1.6875 0.28125 2.390625 0.8125q0.703125 0.53125 0.703125 2.0q0 1.46875 -0.9375 2.15625q-0.9375 0.671875 -2.75 0.671875q-1.171875 0 -2.765625 -0.265625l-0.578125 -0.09375l0.078125 -1.234375q2.171875 0.328125 3.265625 0.328125q1.109375 0 1.6875 -0.34375q0.578125 -0.359375 0.578125 -1.1875q0 -0.828125 -0.5 -1.125q-0.484375 -0.296875 -2.15625 -0.5625q-1.671875 -0.265625 -2.375 -0.78125q-0.703125 -0.515625 -0.703125 -1.890625q0 -1.390625 0.96875 -2.046875q0.984375 -0.671875 2.453125 -0.671875q1.15625 0 2.90625 0.265625l0.53125 0.09375l-0.046875 1.21875q-2.109375 -0.3125 -3.328125 -0.3125zm16.513855 1.796875l0 4.859375q0.046875 0.703125 1.09375 0.828125l-0.046875 1.125q-1.5 0 -2.265625 -0.75q-1.703125 0.75 -3.421875 0.75q-1.3125 0 -2.0 -0.734375q-0.671875 -0.75 -0.671875 -2.125q0 -1.390625 0.703125 -2.046875q0.703125 -0.65625 2.203125 -0.8125l2.984375 -0.28125l0 -0.8125q0 -0.96875 -0.421875 -1.390625q-0.421875 -0.421875 -1.140625 -0.421875q-1.515625 0 -3.15625 0.1875l-0.59375 0.0625l-0.046875 -1.078125q2.078125 -0.421875 3.6875 -0.421875q1.625 0 2.359375 0.75q0.734375 0.734375 0.734375 2.3125zm-5.859375 3.875q0 1.75 1.453125 1.75q1.28125 0 2.546875 -0.4375l0.4375 -0.15625l0 -3.140625l-2.8125 0.265625q-0.859375 0.078125 -1.25 0.5q-0.375 0.421875 -0.375 1.21875zm12.690552 -6.9375q1.921875 0 2.6875 1.09375q0.78125 1.09375 0.78125 3.828125q0 2.734375 -0.96875 3.84375q-0.953125 1.109375 -3.515625 1.109375q-0.796875 0 -2.640625 -0.15625l-0.53125 -0.046875l0 -13.625l1.40625 0l0 4.609375q1.4375 -0.65625 2.78125 -0.65625zm-1.046875 8.609375q1.875 0 2.46875 -0.84375q0.59375 -0.859375 0.59375 -2.859375q0 -2.015625 -0.484375 -2.828125q-0.46875 -0.8125 -1.671875 -0.8125q-1.109375 0 -2.265625 0.421875l-0.375 0.140625l0 6.6875q1.234375 0.09375 1.734375 0.09375zm6.7819214 1.078125l0 -13.640625l1.421875 0l0 13.640625l-1.421875 0zm10.653381 -1.171875l0.546875 -0.0625l0.046875 1.125q-2.171875 0.296875 -3.703125 0.296875q-2.0625 0 -2.921875 -1.1875q-0.84375 -1.1875 -0.84375 -3.6875q0 -5.0 3.96875 -5.0q1.921875 0 2.859375 1.078125q0.953125 1.0625 0.953125 3.359375l-0.078125 1.09375l-6.265625 0q0 1.578125 0.5625 2.34375q0.578125 0.75 1.984375 0.75q1.421875 0 2.890625 -0.109375zm-0.515625 -4.125q0 -1.75 -0.5625 -2.46875q-0.5625 -0.734375 -1.828125 -0.734375q-1.25 0 -1.890625 0.765625q-0.640625 0.765625 -0.65625 2.4375l4.9375 0zm12.494507 -2.96875l-3.015625 0l0 4.546875q0 1.625 0.234375 2.140625q0.25 0.515625 1.140625 0.515625l1.6875 -0.109375l0.09375 1.171875q-1.265625 0.203125 -1.9375 0.203125q-1.484375 0 -2.0625 -0.71875q-0.5625 -0.71875 -0.5625 -2.75l0 -5.0l-1.34375 0l0 -1.234375l1.34375 0l0 -2.90625l1.40625 0l0 2.90625l3.015625 0l0 1.234375zm1.2202148 3.5q0 -2.609375 0.921875 -3.765625q0.9375 -1.15625 3.140625 -1.15625q2.21875 0 3.140625 1.15625q0.921875 1.15625 0.921875 3.765625q0 2.59375 -0.875 3.78125q-0.875 1.171875 -3.1875 1.171875q-2.3125 0 -3.1875 -1.171875q-0.875 -1.1875 -0.875 -3.78125zm1.453125 -0.03125q0 2.078125 0.5 2.921875q0.515625 0.828125 2.109375 0.828125q1.609375 0 2.109375 -0.828125q0.5 -0.828125 0.5 -2.90625q0 -2.09375 -0.5625 -2.875q-0.546875 -0.796875 -2.046875 -0.796875q-1.484375 0 -2.046875 0.796875q-0.5625 0.78125 -0.5625 2.859375z" fill-rule="nonzero"></path><path fill="#000000" d="m678.5122 397.25995l0.546875 -0.0625l0.046875 1.125q-2.171875 0.296875 -3.703125 0.296875q-2.0625 0 -2.921875 -1.1875q-0.84375 -1.1875 -0.84375 -3.6875q0 -5.0 3.96875 -5.0q1.921875 0 2.859375 1.078125q0.953125 1.0625 0.953125 3.359375l-0.078125 1.09375l-6.265625 0q0 1.578125 0.5625 2.34375q0.578125 0.75 1.984375 0.75q1.421875 0 2.890625 -0.109375zm-0.515625 -4.125q0 -1.75 -0.5625 -2.46875q-0.5625 -0.734375 -1.828125 -0.734375q-1.25 0 -1.890625 0.765625q-0.640625 0.765625 -0.65625 2.4375l4.9375 0zm2.5308228 -4.203125l1.546875 0l2.328125 3.71875l2.3125 -3.71875l1.5625 0l-3.015625 4.71875l3.0 4.78125l-1.5625 0l-2.296875 -3.703125l-2.328125 3.703125l-1.546875 0l2.984375 -4.75l-2.984375 -4.75zm9.385742 13.71875l0 -13.71875l1.40625 0l0 0.6875q1.4375 -0.875 2.84375 -0.875q1.796875 0 2.609375 1.15625q0.828125 1.140625 0.828125 3.78125q0 2.640625 -0.96875 3.796875q-0.953125 1.140625 -3.171875 1.140625q-1.15625 0 -2.125 -0.203125l0 4.234375l-1.421875 0zm4.046875 -12.640625q-0.578125 0 -1.234375 0.203125q-0.65625 0.1875 -1.03125 0.375l-0.359375 0.1875l0 6.40625q1.34375 0.203125 2.046875 0.203125q1.546875 0 2.15625 -0.875q0.625 -0.875 0.625 -2.84375q0 -1.984375 -0.5625 -2.8125q-0.5625 -0.84375 -1.640625 -0.84375zm5.784973 8.421875l0 -9.5l1.40625 0l0 1.296875q1.640625 -1.140625 3.46875 -1.5l0 1.4375q-0.796875 0.15625 -1.671875 0.484375q-0.859375 0.3125 -1.3125 0.5625l-0.46875 0.25l0 6.96875l-1.421875 0zm12.908203 -1.171875l0.546875 -0.0625l0.046875 1.125q-2.171875 0.296875 -3.703125 0.296875q-2.0625 0 -2.921875 -1.1875q-0.84375 -1.1875 -0.84375 -3.6875q0 -5.0 3.96875 -5.0q1.921875 0 2.859375 1.078125q0.953125 1.0625 0.953125 3.359375l-0.078125 1.09375l-6.265625 0q0 1.578125 0.5625 2.34375q0.578125 0.75 1.984375 0.75q1.421875 0 2.890625 -0.109375zm-0.515625 -4.125q0 -1.75 -0.5625 -2.46875q-0.5625 -0.734375 -1.828125 -0.734375q-1.25 0 -1.890625 0.765625q-0.640625 0.765625 -0.65625 2.4375l4.9375 0zm6.4526367 -3.125q-2.0625 0 -2.0625 1.453125q0 0.65625 0.46875 0.9375q0.484375 0.28125 2.171875 0.578125q1.6875 0.28125 2.390625 0.8125q0.703125 0.53125 0.703125 2.0q0 1.46875 -0.9375 2.15625q-0.9375 0.671875 -2.75 0.671875q-1.171875 0 -2.765625 -0.265625l-0.578125 -0.09375l0.078125 -1.234375q2.171875 0.328125 3.265625 0.328125q1.109375 0 1.6875 -0.34375q0.578125 -0.359375 0.578125 -1.1875q0 -0.828125 -0.5 -1.125q-0.484375 -0.296875 -2.15625 -0.5625q-1.671875 -0.265625 -2.375 -0.78125q-0.703125 -0.515625 -0.703125 -1.890625q0 -1.390625 0.96875 -2.046875q0.984375 -0.671875 2.453125 -0.671875q1.15625 0 2.90625 0.265625l0.53125 0.09375l-0.046875 1.21875q-2.109375 -0.3125 -3.328125 -0.3125zm8.675171 0q-2.0625 0 -2.0625 1.453125q0 0.65625 0.46875 0.9375q0.484375 0.28125 2.171875 0.578125q1.6875 0.28125 2.390625 0.8125q0.703125 0.53125 0.703125 2.0q0 1.46875 -0.9375 2.15625q-0.9375 0.671875 -2.75 0.671875q-1.171875 0 -2.765625 -0.265625l-0.578125 -0.09375l0.078125 -1.234375q2.171875 0.328125 3.265625 0.328125q1.109375 0 1.6875 -0.34375q0.578125 -0.359375 0.578125 -1.1875q0 -0.828125 -0.5 -1.125q-0.484375 -0.296875 -2.15625 -0.5625q-1.671875 -0.265625 -2.375 -0.78125q-0.703125 -0.515625 -0.703125 -1.890625q0 -1.390625 0.96875 -2.046875q0.984375 -0.671875 2.453125 -0.671875q1.15625 0 2.90625 0.265625l0.53125 0.09375l-0.046875 1.21875q-2.109375 -0.3125 -3.328125 -0.3125zm15.732605 -1.078125l1.421875 0l0 9.5l-1.421875 0l0 -0.671875q-1.421875 0.859375 -2.8125 0.859375q-1.9375 0 -2.578125 -1.0q-0.640625 -1.015625 -0.640625 -3.734375l0 -4.953125l1.4375 0l0 4.9375q0 2.078125 0.359375 2.78125q0.359375 0.703125 1.625 0.703125q0.625 0 1.265625 -0.171875q0.65625 -0.1875 1.0 -0.359375l0.34375 -0.171875l0 -7.71875zm5.406494 9.5l-1.421875 0l0 -9.5l1.40625 0l0 0.671875q1.53125 -0.859375 2.9375 -0.859375q1.90625 0 2.5625 1.03125q0.65625 1.015625 0.65625 3.640625l0 5.015625l-1.40625 0l0 -4.984375q0 -1.96875 -0.390625 -2.703125q-0.390625 -0.734375 -1.671875 -0.734375q-0.609375 0 -1.28125 0.1875q-0.671875 0.171875 -1.03125 0.34375l-0.359375 0.171875l0 7.71875zm12.143372 -9.6875q0.625 0 2.125 0.21875l0.453125 0.0625l-0.046875 1.15625q-1.53125 -0.171875 -2.25 -0.171875q-1.609375 0 -2.1875 0.78125q-0.578125 0.765625 -0.578125 2.84375q0 2.078125 0.53125 2.90625q0.546875 0.8125 2.25 0.8125l2.25 -0.171875l0.0625 1.171875q-1.78125 0.265625 -2.640625 0.265625q-2.234375 0 -3.078125 -1.140625q-0.84375 -1.140625 -0.84375 -3.84375q0 -2.703125 0.90625 -3.796875q0.921875 -1.09375 3.046875 -1.09375zm11.040405 8.515625l0.546875 -0.0625l0.046875 1.125q-2.171875 0.296875 -3.703125 0.296875q-2.0625 0 -2.921875 -1.1875q-0.84375 -1.1875 -0.84375 -3.6875q0 -5.0 3.96875 -5.0q1.921875 0 2.859375 1.078125q0.953125 1.0625 0.953125 3.359375l-0.078125 1.09375l-6.265625 0q0 1.578125 0.5625 2.34375q0.578125 0.75 1.984375 0.75q1.421875 0 2.890625 -0.109375zm-0.515625 -4.125q0 -1.75 -0.5625 -2.46875q-0.5625 -0.734375 -1.828125 -0.734375q-1.25 0 -1.890625 0.765625q-0.640625 0.765625 -0.65625 2.4375l4.9375 0zm3.4838867 5.296875l0 -9.5l1.40625 0l0 1.296875q1.640625 -1.140625 3.46875 -1.5l0 1.4375q-0.796875 0.15625 -1.671875 0.484375q-0.859375 0.3125 -1.3125 0.5625l-0.46875 0.25l0 6.96875l-1.421875 0zm11.361328 -8.265625l-3.015625 0l0 4.546875q0 1.625 0.234375 2.140625q0.25 0.515625 1.140625 0.515625l1.6875 -0.109375l0.09375 1.171875q-1.265625 0.203125 -1.9375 0.203125q-1.484375 0 -2.0625 -0.71875q-0.5625 -0.71875 -0.5625 -2.75l0 -5.0l-1.34375 0l0 -1.234375l1.34375 0l0 -2.90625l1.40625 0l0 2.90625l3.015625 0l0 1.234375zm8.345215 1.640625l0 4.859375q0.046875 0.703125 1.09375 0.828125l-0.046875 1.125q-1.5 0 -2.265625 -0.75q-1.703125 0.75 -3.421875 0.75q-1.3125 0 -2.0 -0.734375q-0.671875 -0.75 -0.671875 -2.125q0 -1.390625 0.703125 -2.046875q0.703125 -0.65625 2.203125 -0.8125l2.984375 -0.28125l0 -0.8125q0 -0.96875 -0.421875 -1.390625q-0.421875 -0.421875 -1.140625 -0.421875q-1.515625 0 -3.15625 0.1875l-0.59375 0.0625l-0.046875 -1.078125q2.078125 -0.421875 3.6875 -0.421875q1.625 0 2.359375 0.75q0.734375 0.734375 0.734375 2.3125zm-5.859375 3.875q0 1.75 1.453125 1.75q1.28125 0 2.546875 -0.4375l0.4375 -0.15625l0 -3.140625l-2.8125 0.265625q-0.859375 0.078125 -1.25 0.5q-0.375 0.421875 -0.375 1.21875zm8.503052 2.75l0 -9.5l1.421875 0l0 9.5l-1.421875 0zm0 -11.640625l0 -1.65625l1.421875 0l0 1.65625l-1.421875 0zm5.5075684 11.640625l-1.421875 0l0 -9.5l1.40625 0l0 0.671875q1.53125 -0.859375 2.9375 -0.859375q1.90625 0 2.5625 1.03125q0.65625 1.015625 0.65625 3.640625l0 5.015625l-1.40625 0l0 -4.984375q0 -1.96875 -0.390625 -2.703125q-0.390625 -0.734375 -1.671875 -0.734375q-0.609375 0 -1.28125 0.1875q-0.671875 0.171875 -1.03125 0.34375l-0.359375 0.171875l0 7.71875zm13.502808 -8.265625l-3.015625 0l0 4.546875q0 1.625 0.234375 2.140625q0.25 0.515625 1.140625 0.515625l1.6875 -0.109375l0.09375 1.171875q-1.265625 0.203125 -1.9375 0.203125q-1.484375 0 -2.0625 -0.71875q-0.5625 -0.71875 -0.5625 -2.75l0 -5.0l-1.34375 0l0 -1.234375l1.34375 0l0 -2.90625l1.40625 0l0 2.90625l3.015625 0l0 1.234375zm0.73583984 -1.234375l1.4375 0l2.375 8.265625l0.625 0l2.390625 -8.265625l1.421875 0l-3.953125 13.71875l-1.421875 0l1.234375 -4.21875l-1.40625 0l-2.703125 -9.5z" fill-rule="nonzero"></path><path fill="#000000" fill-opacity="0.0" d="m204.35957 182.08398l160.50395 0l0 30.047256l-160.50395 0z" fill-rule="nonzero"></path><path fill="#000000" d="m228.5943 192.18385l0 -1.296875l9.5 0l0 1.296875l-4.015625 0l0 11.84375l-1.4375 0l0 -11.84375l-4.046875 0zm10.031937 2.34375l1.4375 0l2.375 8.265625l0.625 0l2.390625 -8.265625l1.421875 0l-3.953125 13.71875l-1.421875 0l1.234375 -4.21875l-1.40625 0l-2.703125 -9.5zm9.917221 13.71875l0 -13.71875l1.40625 0l0 0.6875q1.4375 -0.875 2.84375 -0.875q1.796875 0 2.609375 1.15625q0.828125 1.140625 0.828125 3.78125q0 2.640625 -0.96875 3.796875q-0.953125 1.140625 -3.171875 1.140625q-1.15625 0 -2.125 -0.203125l0 4.234375l-1.421875 0zm4.046875 -12.640625q-0.578125 0 -1.234375 0.203125q-0.65625 0.1875 -1.03125 0.375l-0.359375 0.1875l0 6.40625q1.34375 0.203125 2.046875 0.203125q1.546875 0 2.15625 -0.875q0.625 -0.875 0.625 -2.84375q0 -1.984375 -0.5625 -2.8125q-0.5625 -0.84375 -1.640625 -0.84375zm12.238098 7.25l0.546875 -0.0625l0.046875 1.125q-2.171875 0.296875 -3.703125 0.296875q-2.0625 0 -2.921875 -1.1875q-0.84375 -1.1875 -0.84375 -3.6875q0 -5.0 3.96875 -5.0q1.921875 0 2.859375 1.078125q0.953125 1.0625 0.953125 3.359375l-0.078125 1.09375l-6.265625 0q0 1.578125 0.5625 2.34375q0.578125 0.75 1.984375 0.75q1.421875 0 2.890625 -0.109375zm-0.515625 -4.125q0 -1.75 -0.5625 -2.46875q-0.5625 -0.734375 -1.828125 -0.734375q-1.25 0 -1.890625 0.765625q-0.640625 0.765625 -0.65625 2.4375l4.9375 0zm15.775787 5.09375q-1.96875 0.390625 -3.53125 0.390625q-1.546875 0 -2.515625 -0.421875q-0.953125 -0.4375 -1.484375 -1.328125q-0.515625 -0.90625 -0.71875 -2.078125q-0.1875 -1.171875 -0.1875 -2.90625q0 -1.75 0.1875 -2.9375q0.203125 -1.1875 0.71875 -2.09375q0.53125 -0.921875 1.484375 -1.34375q0.953125 -0.421875 2.46875 -0.421875q1.515625 0 3.578125 0.421875l-0.0625 1.234375q-1.921875 -0.34375 -3.421875 -0.34375q-2.09375 0 -2.765625 1.25q-0.671875 1.25 -0.671875 4.25q0 1.5 0.125 2.40625q0.125 0.90625 0.484375 1.640625q0.359375 0.734375 1.046875 1.046875q0.703125 0.3125 2.03125 0.3125q1.34375 0 3.171875 -0.34375l0.0625 1.265625zm3.3833618 0.203125l-1.421875 0l0 -13.640625l1.421875 0l0 4.671875q1.515625 -0.71875 2.921875 -0.71875q1.90625 0 2.5625 1.03125q0.65625 1.015625 0.65625 3.640625l0 5.015625l-1.4375 0l0 -4.984375q0 -1.96875 -0.390625 -2.703125q-0.390625 -0.734375 -1.640625 -0.734375q-1.1875 0 -2.3125 0.4375l-0.359375 0.140625l0 7.84375zm15.049652 -1.171875l0.546875 -0.0625l0.046875 1.125q-2.171875 0.296875 -3.703125 0.296875q-2.0625 0 -2.921875 -1.1875q-0.84375 -1.1875 -0.84375 -3.6875q0 -5.0 3.96875 -5.0q1.921875 0 2.859375 1.078125q0.953125 1.0625 0.953125 3.359375l-0.078125 1.09375l-6.265625 0q0 1.578125 0.5625 2.34375q0.578125 0.75 1.984375 0.75q1.421875 0 2.890625 -0.109375zm-0.515625 -4.125q0 -1.75 -0.5625 -2.46875q-0.5625 -0.734375 -1.828125 -0.734375q-1.25 0 -1.890625 0.765625q-0.640625 0.765625 -0.65625 2.4375l4.9375 0zm7.030792 -4.390625q0.625 0 2.125 0.21875l0.453125 0.0625l-0.046875 1.15625q-1.53125 -0.171875 -2.25 -0.171875q-1.609375 0 -2.1875 0.78125q-0.578125 0.765625 -0.578125 2.84375q0 2.078125 0.53125 2.90625q0.546875 0.8125 2.25 0.8125l2.25 -0.171875l0.0625 1.171875q-1.78125 0.265625 -2.640625 0.265625q-2.234375 0 -3.078125 -1.140625q-0.84375 -1.140625 -0.84375 -3.84375q0 -2.703125 0.90625 -3.796875q0.921875 -1.09375 3.046875 -1.09375zm6.0091248 9.6875l-1.421875 0l0 -13.640625l1.421875 0l0 8.046875l1.484375 -0.0625l2.703125 -3.84375l1.625 0l-3.09375 4.375l3.21875 5.125l-1.609375 0l-2.828125 -4.40625l-1.5 0.0625l0 4.34375zm7.5144653 0l0 -9.5l1.421875 0l0 9.5l-1.421875 0zm0 -11.640625l0 -1.65625l1.421875 0l0 1.65625l-1.421875 0zm5.507599 11.640625l-1.421875 0l0 -9.5l1.40625 0l0 0.671875q1.53125 -0.859375 2.9375 -0.859375q1.90625 0 2.5625 1.03125q0.65625 1.015625 0.65625 3.640625l0 5.015625l-1.40625 0l0 -4.984375q0 -1.96875 -0.390625 -2.703125q-0.390625 -0.734375 -1.671875 -0.734375q-0.609375 0 -1.28125 0.1875q-0.671875 0.171875 -1.03125 0.34375l-0.359375 0.171875l0 7.71875zm12.252777 4.46875q-2.28125 0 -3.1875 -0.625q-0.890625 -0.609375 -0.890625 -2.25q0 -0.78125 0.34375 -1.265625q0.34375 -0.484375 1.15625 -1.09375q-0.53125 -0.359375 -0.53125 -1.3125q0 -0.3125 0.46875 -1.1875l0.171875 -0.3125q-1.5 -0.671875 -1.5 -2.859375q0 -3.25 3.546875 -3.25q0.921875 0 1.703125 0.1875l0.28125 0.0625l2.8125 -0.078125l0 1.21875l-1.8125 -0.046875q0.640625 0.625 0.640625 1.90625q0 1.78125 -0.890625 2.5q-0.890625 0.703125 -2.78125 0.703125q-0.515625 0 -0.9375 -0.078125q-0.34375 0.84375 -0.34375 1.09375q0 0.578125 0.359375 0.734375q0.375 0.140625 2.1875 0.140625q1.828125 0 2.625 0.578125q0.796875 0.5625 0.796875 2.203125q0 3.03125 -4.21875 3.03125zm-2.671875 -2.984375q0 1.0 0.5625 1.390625q0.5625 0.390625 2.0625 0.390625q1.515625 0 2.171875 -0.421875q0.65625 -0.40625 0.65625 -1.390625q0 -0.984375 -0.484375 -1.265625q-0.46875 -0.28125 -1.859375 -0.28125l-2.046875 -0.09375q-0.625 0.453125 -0.84375 0.796875q-0.21875 0.34375 -0.21875 0.875zm0.125 -7.921875q0 1.125 0.5 1.59375q0.515625 0.46875 1.671875 0.46875q1.15625 0 1.640625 -0.46875q0.5 -0.46875 0.5 -1.59375q0 -1.140625 -0.5 -1.609375q-0.484375 -0.484375 -1.640625 -0.484375q-1.15625 0 -1.671875 0.484375q-0.5 0.484375 -0.5 1.609375z" fill-rule="nonzero"></path><path fill="#000000" fill-opacity="0.0" d="m484.78217 161.0315l145.07086 0l0 30.047241l-145.07086 0z" fill-rule="nonzero"></path><path fill="#000000" d="m501.30035 171.13136l0 -1.296875l9.5 0l0 1.296875l-4.015625 0l0 11.84375l-1.4375 0l0 -11.84375l-4.046875 0zm10.031921 2.34375l1.4375 0l2.375 8.265625l0.625 0l2.390625 -8.265625l1.421875 0l-3.953125 13.71875l-1.421875 0l1.234375 -4.21875l-1.40625 0l-2.703125 -9.5zm9.917236 13.71875l0 -13.71875l1.40625 0l0 0.6875q1.4375 -0.875 2.84375 -0.875q1.796875 0 2.609375 1.15625q0.828125 1.140625 0.828125 3.78125q0 2.640625 -0.96875 3.796875q-0.953125 1.140625 -3.171875 1.140625q-1.15625 0 -2.125 -0.203125l0 4.234375l-1.421875 0zm4.046875 -12.640625q-0.578125 0 -1.234375 0.203125q-0.65625 0.1875 -1.03125 0.375l-0.359375 0.1875l0 6.40625q1.34375 0.203125 2.046875 0.203125q1.546875 0 2.15625 -0.875q0.625 -0.875 0.625 -2.84375q0 -1.984375 -0.5625 -2.8125q-0.5625 -0.84375 -1.640625 -0.84375zm12.238098 7.25l0.546875 -0.0625l0.046875 1.125q-2.171875 0.296875 -3.703125 0.296875q-2.0625 0 -2.921875 -1.1875q-0.84375 -1.1875 -0.84375 -3.6875q0 -5.0 3.96875 -5.0q1.921875 0 2.859375 1.078125q0.953125 1.0625 0.953125 3.359375l-0.078125 1.09375l-6.265625 0q0 1.578125 0.5625 2.34375q0.578125 0.75 1.984375 0.75q1.421875 0 2.890625 -0.109375zm-0.515625 -4.125q0 -1.75 -0.5625 -2.46875q-0.5625 -0.734375 -1.828125 -0.734375q-1.25 0 -1.890625 0.765625q-0.640625 0.765625 -0.65625 2.4375l4.9375 0zm15.775757 5.09375q-1.96875 0.390625 -3.53125 0.390625q-1.546875 0 -2.515625 -0.421875q-0.953125 -0.4375 -1.484375 -1.328125q-0.515625 -0.90625 -0.71875 -2.078125q-0.1875 -1.171875 -0.1875 -2.90625q0 -1.75 0.1875 -2.9375q0.203125 -1.1875 0.71875 -2.09375q0.53125 -0.921875 1.484375 -1.34375q0.953125 -0.421875 2.46875 -0.421875q1.515625 0 3.578125 0.421875l-0.0625 1.234375q-1.921875 -0.34375 -3.421875 -0.34375q-2.09375 0 -2.765625 1.25q-0.671875 1.25 -0.671875 4.25q0 1.5 0.125 2.40625q0.125 0.90625 0.484375 1.640625q0.359375 0.734375 1.046875 1.046875q0.703125 0.3125 2.03125 0.3125q1.34375 0 3.171875 -0.34375l0.0625 1.265625zm3.3833618 0.203125l-1.421875 0l0 -13.640625l1.421875 0l0 4.671875q1.515625 -0.71875 2.921875 -0.71875q1.90625 0 2.5625 1.03125q0.65625 1.015625 0.65625 3.640625l0 5.015625l-1.4375 0l0 -4.984375q0 -1.96875 -0.390625 -2.703125q-0.390625 -0.734375 -1.640625 -0.734375q-1.1875 0 -2.3125 0.4375l-0.359375 0.140625l0 7.84375zm15.049683 -1.171875l0.546875 -0.0625l0.046875 1.125q-2.171875 0.296875 -3.703125 0.296875q-2.0625 0 -2.921875 -1.1875q-0.84375 -1.1875 -0.84375 -3.6875q0 -5.0 3.96875 -5.0q1.921875 0 2.859375 1.078125q0.953125 1.0625 0.953125 3.359375l-0.078125 1.09375l-6.265625 0q0 1.578125 0.5625 2.34375q0.578125 0.75 1.984375 0.75q1.421875 0 2.890625 -0.109375zm-0.515625 -4.125q0 -1.75 -0.5625 -2.46875q-0.5625 -0.734375 -1.828125 -0.734375q-1.25 0 -1.890625 0.765625q-0.640625 0.765625 -0.65625 2.4375l4.9375 0zm7.0307617 -4.390625q0.625 0 2.125 0.21875l0.453125 0.0625l-0.046875 1.15625q-1.53125 -0.171875 -2.25 -0.171875q-1.609375 0 -2.1875 0.78125q-0.578125 0.765625 -0.578125 2.84375q0 2.078125 0.53125 2.90625q0.546875 0.8125 2.25 0.8125l2.25 -0.171875l0.0625 1.171875q-1.78125 0.265625 -2.640625 0.265625q-2.234375 0 -3.078125 -1.140625q-0.84375 -1.140625 -0.84375 -3.84375q0 -2.703125 0.90625 -3.796875q0.921875 -1.09375 3.046875 -1.09375zm6.0091553 9.6875l-1.421875 0l0 -13.640625l1.421875 0l0 8.046875l1.484375 -0.0625l2.703125 -3.84375l1.625 0l-3.09375 4.375l3.21875 5.125l-1.609375 0l-2.828125 -4.40625l-1.5 0.0625l0 4.34375zm7.5144653 0l0 -9.5l1.421875 0l0 9.5l-1.421875 0zm0 -11.640625l0 -1.65625l1.421875 0l0 1.65625l-1.421875 0zm5.5075684 11.640625l-1.421875 0l0 -9.5l1.40625 0l0 0.671875q1.53125 -0.859375 2.9375 -0.859375q1.90625 0 2.5625 1.03125q0.65625 1.015625 0.65625 3.640625l0 5.015625l-1.40625 0l0 -4.984375q0 -1.96875 -0.390625 -2.703125q-0.390625 -0.734375 -1.671875 -0.734375q-0.609375 0 -1.28125 0.1875q-0.671875 0.171875 -1.03125 0.34375l-0.359375 0.171875l0 7.71875zm12.252808 4.46875q-2.28125 0 -3.1875 -0.625q-0.890625 -0.609375 -0.890625 -2.25q0 -0.78125 0.34375 -1.265625q0.34375 -0.484375 1.15625 -1.09375q-0.53125 -0.359375 -0.53125 -1.3125q0 -0.3125 0.46875 -1.1875l0.171875 -0.3125q-1.5 -0.671875 -1.5 -2.859375q0 -3.25 3.546875 -3.25q0.921875 0 1.703125 0.1875l0.28125 0.0625l2.8125 -0.078125l0 1.21875l-1.8125 -0.046875q0.640625 0.625 0.640625 1.90625q0 1.78125 -0.890625 2.5q-0.890625 0.703125 -2.78125 0.703125q-0.515625 0 -0.9375 -0.078125q-0.34375 0.84375 -0.34375 1.09375q0 0.578125 0.359375 0.734375q0.375 0.140625 2.1875 0.140625q1.828125 0 2.625 0.578125q0.796875 0.5625 0.796875 2.203125q0 3.03125 -4.21875 3.03125zm-2.671875 -2.984375q0 1.0 0.5625 1.390625q0.5625 0.390625 2.0625 0.390625q1.515625 0 2.171875 -0.421875q0.65625 -0.40625 0.65625 -1.390625q0 -0.984375 -0.484375 -1.265625q-0.46875 -0.28125 -1.859375 -0.28125l-2.046875 -0.09375q-0.625 0.453125 -0.84375 0.796875q-0.21875 0.34375 -0.21875 0.875zm0.125 -7.921875q0 1.125 0.5 1.59375q0.515625 0.46875 1.671875 0.46875q1.15625 0 1.640625 -0.46875q0.5 -0.46875 0.5 -1.59375q0 -1.140625 -0.5 -1.609375q-0.484375 -0.484375 -1.640625 -0.484375q-1.15625 0 -1.671875 0.484375q-0.5 0.484375 -0.5 1.609375z" fill-rule="nonzero"></path><path fill="#000000" fill-opacity="0.0" d="m700.17847 196.61154l160.50397 0l0 44.850403l-160.50397 0z" fill-rule="nonzero"></path><path fill="#000000" d="m751.6047 203.11299l0 -1.296875l9.5 0l0 1.296875l-4.015625 0l0 11.84375l-1.4375 0l0 -11.84375l-4.046875 0zm17.391296 10.671875l0.546875 -0.0625l0.046875 1.125q-2.171875 0.296875 -3.703125 0.296875q-2.0625 0 -2.921875 -1.1875q-0.84375 -1.1875 -0.84375 -3.6875q0 -5.0 3.96875 -5.0q1.921875 0 2.859375 1.078125q0.953125 1.0625 0.953125 3.359375l-0.078125 1.09375l-6.265625 0q0 1.578125 0.5625 2.34375q0.578125 0.75 1.984375 0.75q1.421875 0 2.890625 -0.109375zm-0.515625 -4.125q0 -1.75 -0.5625 -2.46875q-0.5625 -0.734375 -1.828125 -0.734375q-1.25 0 -1.890625 0.765625q-0.640625 0.765625 -0.65625 2.4375l4.9375 0zm6.4526978 -3.125q-2.0625 0 -2.0625 1.453125q0 0.65625 0.46875 0.9375q0.484375 0.28125 2.171875 0.578125q1.6875 0.28125 2.390625 0.8125q0.703125 0.53125 0.703125 2.0q0 1.46875 -0.9375 2.15625q-0.9375 0.671875 -2.75 0.671875q-1.171875 0 -2.765625 -0.265625l-0.578125 -0.09375l0.078125 -1.234375q2.171875 0.328125 3.265625 0.328125q1.109375 0 1.6875 -0.34375q0.578125 -0.359375 0.578125 -1.1875q0 -0.828125 -0.5 -1.125q-0.484375 -0.296875 -2.15625 -0.5625q-1.671875 -0.265625 -2.375 -0.78125q-0.703125 -0.515625 -0.703125 -1.890625q0 -1.390625 0.96875 -2.046875q0.984375 -0.671875 2.453125 -0.671875q1.15625 0 2.90625 0.265625l0.53125 0.09375l-0.046875 1.21875q-2.109375 -0.3125 -3.328125 -0.3125zm10.61261 0.15625l-3.015625 0l0 4.546875q0 1.625 0.234375 2.140625q0.25 0.515625 1.140625 0.515625l1.6875 -0.109375l0.09375 1.171875q-1.265625 0.203125 -1.9375 0.203125q-1.484375 0 -2.0625 -0.71875q-0.5625 -0.71875 -0.5625 -2.75l0 -5.0l-1.34375 0l0 -1.234375l1.34375 0l0 -2.90625l1.40625 0l0 2.90625l3.015625 0l0 1.234375zm1.6420898 8.265625l0 -9.5l1.421875 0l0 9.5l-1.421875 0zm0 -11.640625l0 -1.65625l1.421875 0l0 1.65625l-1.421875 0zm5.5076294 11.640625l-1.421875 0l0 -9.5l1.40625 0l0 0.671875q1.53125 -0.859375 2.9375 -0.859375q1.90625 0 2.5625 1.03125q0.65625 1.015625 0.65625 3.640625l0 5.015625l-1.40625 0l0 -4.984375q0 -1.96875 -0.390625 -2.703125q-0.390625 -0.734375 -1.671875 -0.734375q-0.609375 0 -1.28125 0.1875q-0.671875 0.171875 -1.03125 0.34375l-0.359375 0.171875l0 7.71875zm12.252747 4.46875q-2.28125 0 -3.1875 -0.625q-0.890625 -0.609375 -0.890625 -2.25q0 -0.78125 0.34375 -1.265625q0.34375 -0.484375 1.15625 -1.09375q-0.53125 -0.359375 -0.53125 -1.3125q0 -0.3125 0.46875 -1.1875l0.171875 -0.3125q-1.5 -0.671875 -1.5 -2.859375q0 -3.25 3.546875 -3.25q0.921875 0 1.703125 0.1875l0.28125 0.0625l2.8125 -0.078125l0 1.21875l-1.8125 -0.046875q0.640625 0.625 0.640625 1.90625q0 1.78125 -0.890625 2.5q-0.890625 0.703125 -2.78125 0.703125q-0.515625 0 -0.9375 -0.078125q-0.34375 0.84375 -0.34375 1.09375q0 0.578125 0.359375 0.734375q0.375 0.140625 2.1875 0.140625q1.828125 0 2.625 0.578125q0.796875 0.5625 0.796875 2.203125q0 3.03125 -4.21875 3.03125zm-2.671875 -2.984375q0 1.0 0.5625 1.390625q0.5625 0.390625 2.0625 0.390625q1.515625 0 2.171875 -0.421875q0.65625 -0.40625 0.65625 -1.390625q0 -0.984375 -0.484375 -1.265625q-0.46875 -0.28125 -1.859375 -0.28125l-2.046875 -0.09375q-0.625 0.453125 -0.84375 0.796875q-0.21875 0.34375 -0.21875 0.875zm0.125 -7.921875q0 1.125 0.5 1.59375q0.515625 0.46875 1.671875 0.46875q1.15625 0 1.640625 -0.46875q0.5 -0.46875 0.5 -1.59375q0 -1.140625 -0.5 -1.609375q-0.484375 -0.484375 -1.640625 -0.484375q-1.15625 0 -1.671875 0.484375q-0.5 0.484375 -0.5 1.609375z" fill-rule="nonzero"></path><path fill="#000000" d="m754.41254 224.89424q-2.859375 0 -2.859375 2.140625q0 1.203125 0.65625 1.65625q0.65625 0.4375 2.65625 0.890625q2.015625 0.4375 2.84375 1.15625q0.84375 0.703125 0.84375 2.34375q0 4.046875 -4.203125 4.046875q-1.390625 0 -3.484375 -0.328125l-0.671875 -0.09375l0.140625 -1.21875q2.59375 0.34375 3.9375 0.34375q2.8125 0 2.8125 -2.640625q0 -1.0625 -0.625 -1.515625q-0.609375 -0.46875 -2.296875 -0.796875q-2.21875 -0.484375 -3.15625 -1.234375q-0.9375 -0.75 -0.9375 -2.515625q0 -3.53125 4.25 -3.53125q1.375 0 3.3125 0.28125l0.65625 0.09375l-0.140625 1.25q-2.640625 -0.328125 -3.734375 -0.328125zm12.158569 2.5625l1.421875 0l0 9.5l-1.421875 0l0 -0.671875q-1.421875 0.859375 -2.8125 0.859375q-1.9375 0 -2.578125 -1.0q-0.640625 -1.015625 -0.640625 -3.734375l0 -4.953125l1.4375 0l0 4.9375q0 2.078125 0.359375 2.78125q0.359375 0.703125 1.625 0.703125q0.625 0 1.265625 -0.171875q0.65625 -0.1875 1.0 -0.359375l0.34375 -0.171875l0 -7.71875zm3.9846191 13.71875l0 -13.71875l1.40625 0l0 0.6875q1.4375 -0.875 2.84375 -0.875q1.796875 0 2.609375 1.15625q0.828125 1.140625 0.828125 3.78125q0 2.640625 -0.96875 3.796875q-0.953125 1.140625 -3.171875 1.140625q-1.15625 0 -2.125 -0.203125l0 4.234375l-1.421875 0zm4.046875 -12.640625q-0.578125 0 -1.234375 0.203125q-0.65625 0.1875 -1.03125 0.375l-0.359375 0.1875l0 6.40625q1.34375 0.203125 2.046875 0.203125q1.546875 0 2.15625 -0.875q0.625 -0.875 0.625 -2.84375q0 -1.984375 -0.5625 -2.8125q-0.5625 -0.84375 -1.640625 -0.84375zm5.784973 12.640625l0 -13.71875l1.40625 0l0 0.6875q1.4375 -0.875 2.84375 -0.875q1.796875 0 2.609375 1.15625q0.828125 1.140625 0.828125 3.78125q0 2.640625 -0.96875 3.796875q-0.953125 1.140625 -3.171875 1.140625q-1.15625 0 -2.125 -0.203125l0 4.234375l-1.421875 0zm4.046875 -12.640625q-0.578125 0 -1.234375 0.203125q-0.65625 0.1875 -1.03125 0.375l-0.359375 0.1875l0 6.40625q1.34375 0.203125 2.046875 0.203125q1.546875 0 2.15625 -0.875q0.625 -0.875 0.625 -2.84375q0 -1.984375 -0.5625 -2.8125q-0.5625 -0.84375 -1.640625 -0.84375zm5.363098 3.65625q0 -2.609375 0.921875 -3.765625q0.9375 -1.15625 3.140625 -1.15625q2.21875 0 3.140625 1.15625q0.921875 1.15625 0.921875 3.765625q0 2.59375 -0.875 3.78125q-0.875 1.171875 -3.1875 1.171875q-2.3125 0 -3.1875 -1.171875q-0.875 -1.1875 -0.875 -3.78125zm1.453125 -0.03125q0 2.078125 0.5 2.921875q0.515625 0.828125 2.109375 0.828125q1.609375 0 2.109375 -0.828125q0.5 -0.828125 0.5 -2.90625q0 -2.09375 -0.5625 -2.875q-0.546875 -0.796875 -2.046875 -0.796875q-1.484375 0 -2.046875 0.796875q-0.5625 0.78125 -0.5625 2.859375zm8.819275 4.796875l0 -9.5l1.40625 0l0 1.296875q1.640625 -1.140625 3.46875 -1.5l0 1.4375q-0.796875 0.15625 -1.671875 0.484375q-0.859375 0.3125 -1.3125 0.5625l-0.46875 0.25l0 6.96875l-1.421875 0zm11.361267 -8.265625l-3.015625 0l0 4.546875q0 1.625 0.234375 2.140625q0.25 0.515625 1.140625 0.515625l1.6875 -0.109375l0.09375 1.171875q-1.265625 0.203125 -1.9375 0.203125q-1.484375 0 -2.0625 -0.71875q-0.5625 -0.71875 -0.5625 -2.75l0 -5.0l-1.34375 0l0 -1.234375l1.34375 0l0 -2.90625l1.40625 0l0 2.90625l3.015625 0l0 1.234375z" fill-rule="nonzero"></path><path fill="#ffffff" d="m435.44357 501.5551l0 0c0 4.6422424 25.685455 8.405518 57.370087 8.405518c31.684631 0 57.370056 -3.7632751 57.370056 -8.405518l0 50.433044c0 4.642273 -25.685425 8.405518 -57.370056 8.405518c-31.684631 0 -57.370087 -3.7632446 -57.370087 -8.405518z" fill-rule="nonzero"></path><path fill="#ffffff" d="m435.44357 501.5551l0 0c0 -4.6422424 25.685455 -8.405518 57.370087 -8.405518c31.684631 0 57.370056 3.7632751 57.370056 8.405518l0 0c0 4.6422424 -25.685425 8.405518 -57.370056 8.405518c-31.684631 0 -57.370087 -3.7632751 -57.370087 -8.405518z" fill-rule="nonzero"></path><path fill="#000000" fill-opacity="0.0" d="m550.1837 501.5551l0 0c0 4.6422424 -25.685425 8.405518 -57.370056 8.405518c-31.684631 0 -57.370087 -3.7632751 -57.370087 -8.405518l0 0c0 -4.6422424 25.685455 -8.405518 57.370087 -8.405518c31.684631 0 57.370056 3.7632751 57.370056 8.405518l0 50.433044c0 4.642273 -25.685425 8.405518 -57.370056 8.405518c-31.684631 0 -57.370087 -3.7632446 -57.370087 -8.405518l0 -50.433044" fill-rule="nonzero"></path><path stroke="#000000" stroke-width="2.0" stroke-linejoin="round" stroke-linecap="butt" d="m550.1837 501.5551l0 0c0 4.6422424 -25.685425 8.405518 -57.370056 8.405518c-31.684631 0 -57.370087 -3.7632751 -57.370087 -8.405518l0 0c0 -4.6422424 25.685455 -8.405518 57.370087 -8.405518c31.684631 0 57.370056 3.7632751 57.370056 8.405518l0 50.433044c0 4.642273 -25.685425 8.405518 -57.370056 8.405518c-31.684631 0 -57.370087 -3.7632446 -57.370087 -8.405518l0 -50.433044" fill-rule="nonzero"></path><path fill="#000000" d="m484.26645 522.905l1.921875 0l-4.34375 16.609375l-4.125 0l-4.34375 -16.609375l1.921875 0l3.8125 14.984375l1.34375 0l3.8125 -14.984375zm14.577332 16.34375q-2.484375 0.5 -4.453125 0.5q-1.96875 0 -3.1875 -0.53125q-1.203125 -0.546875 -1.859375 -1.6875q-0.65625 -1.140625 -0.90625 -2.609375q-0.25 -1.484375 -0.25 -3.6875q0 -2.203125 0.25 -3.703125q0.25 -1.5 0.90625 -2.65625q0.65625 -1.15625 1.859375 -1.671875q1.203125 -0.53125 3.125 -0.53125q1.921875 0 4.515625 0.53125l-0.078125 1.546875q-2.421875 -0.421875 -4.3125 -0.421875q-2.640625 0 -3.5 1.578125q-0.84375 1.5625 -0.84375 5.359375q0 1.890625 0.140625 3.046875q0.15625 1.140625 0.609375 2.078125q0.46875 0.921875 1.34375 1.3125q0.875 0.390625 2.5625 0.390625q1.703125 0 4.0 -0.421875l0.078125 1.578125zm7.602844 -14.96875q-3.59375 0 -3.59375 2.703125q0 1.515625 0.828125 2.078125q0.828125 0.5625 3.359375 1.125q2.53125 0.5625 3.578125 1.46875q1.0625 0.90625 1.0625 2.96875q0 5.109375 -5.3125 5.109375q-1.75 0 -4.390625 -0.40625l-0.859375 -0.125l0.1875 -1.53125q3.265625 0.421875 4.96875 0.421875q3.5625 0 3.5625 -3.328125q0 -1.34375 -0.78125 -1.921875q-0.78125 -0.59375 -2.921875 -1.015625q-2.8125 -0.59375 -3.984375 -1.53125q-1.171875 -0.953125 -1.171875 -3.1875q0 -4.46875 5.34375 -4.46875q1.75 0 4.203125 0.359375l0.8125 0.125l-0.15625 1.5625q-3.34375 -0.40625 -4.734375 -0.40625z" fill-rule="nonzero"></path><path fill="#000000" fill-opacity="0.0" d="m492.81366 493.1496c0 -21.450958 0.01574707 -32.17752 0.03149414 -42.901917c0.01574707 -10.724426 0.03149414 -21.446686 0.03149414 -42.89334" fill-rule="nonzero"></path><path stroke="#000000" stroke-width="2.0" stroke-linejoin="round" stroke-linecap="butt" stroke-dasharray="2.0,6.0" d="m492.81595 481.1496l3.9672852E-4 -2.2449036c0.001739502 -4.1897583 0.004180908 -7.8767395 0.0071411133 -11.228516c0.00592041 -6.703583 0.013793945 -12.066315 0.02166748 -17.428528c0.007873535 -5.3621826 0.01574707 -10.723877 0.021636963 -17.425812c0.002960205 -3.3509521 0.005432129 -7.037018 0.0071411133 -11.225708l3.9672852E-4 -2.2417908" fill-rule="evenodd"></path><path fill="#000000" stroke="#000000" stroke-width="2.0" stroke-linecap="butt" d="m489.51245 481.149l3.3017578 9.076813l3.3051758 -9.075562z" fill-rule="evenodd"></path><path fill="#000000" stroke="#000000" stroke-width="2.0" stroke-linecap="butt" d="m496.17783 419.35495l-3.3017273 -9.076813l-3.3052063 9.075562z" fill-rule="evenodd"></path><path fill="#000000" fill-opacity="0.0" d="m492.81366 435.22833l194.61414 0l0 30.047272l-194.61414 0z" fill-rule="nonzero"></path><path fill="#000000" d="m506.63895 457.17197l0 -13.140625l2.640625 0l3.7344055 11.109375l3.71875 -11.109375l2.640625 0l0 13.140625l-1.46875 0l0 -11.59375l-0.265625 0l-3.8125 11.125l-1.640625 0l-3.8125305 -11.125l-0.265625 0l0 11.59375l-1.46875 0zm22.139984 -6.625l0 4.859375q0.046875 0.703125 1.09375 0.828125l-0.046875 1.125q-1.5 0 -2.265625 -0.75q-1.703125 0.75 -3.421875 0.75q-1.3125 0 -2.0 -0.734375q-0.671875 -0.75 -0.671875 -2.125q0 -1.390625 0.703125 -2.046875q0.703125 -0.65625 2.203125 -0.8125l2.984375 -0.28125l0 -0.8125q0 -0.96875 -0.421875 -1.390625q-0.421875 -0.421875 -1.140625 -0.421875q-1.515625 0 -3.15625 0.1875l-0.59375 0.0625l-0.046875 -1.078125q2.078125 -0.421875 3.6875 -0.421875q1.625 0 2.359375 0.75q0.734375 0.734375 0.734375 2.3125zm-5.859375 3.875q0 1.75 1.453125 1.75q1.28125 0 2.546875 -0.4375l0.4375 -0.15625l0 -3.140625l-2.8125 0.265625q-0.859375 0.078125 -1.25 0.5q-0.375 0.421875 -0.375 1.21875zm9.924927 2.75l-1.421875 0l0 -9.5l1.40625 0l0 0.671875q1.53125 -0.859375 2.9375 -0.859375q1.90625 0 2.5625 1.03125q0.65625 1.015625 0.65625 3.640625l0 5.015625l-1.40625 0l0 -4.984375q0 -1.96875 -0.390625 -2.703125q-0.390625 -0.734375 -1.671875 -0.734375q-0.609375 0 -1.28125 0.1875q-0.671875 0.171875 -1.03125 0.34375l-0.359375 0.171875l0 7.71875zm15.299683 -6.625l0 4.859375q0.046875 0.703125 1.09375 0.828125l-0.046875 1.125q-1.5 0 -2.265625 -0.75q-1.703125 0.75 -3.421875 0.75q-1.3125 0 -2.0 -0.734375q-0.671875 -0.75 -0.671875 -2.125q0 -1.390625 0.703125 -2.046875q0.703125 -0.65625 2.203125 -0.8125l2.984375 -0.28125l0 -0.8125q0 -0.96875 -0.421875 -1.390625q-0.421875 -0.421875 -1.140625 -0.421875q-1.515625 0 -3.15625 0.1875l-0.59375 0.0625l-0.046875 -1.078125q2.078125 -0.421875 3.6875 -0.421875q1.625 0 2.359375 0.75q0.734375 0.734375 0.734375 2.3125zm-5.859375 3.875q0 1.75 1.453125 1.75q1.28125 0 2.546875 -0.4375l0.4375 -0.15625l0 -3.140625l-2.8125 0.265625q-0.859375 0.078125 -1.25 0.5q-0.375 0.421875 -0.375 1.21875zm12.159241 7.21875q-2.28125 0 -3.1875 -0.625q-0.890625 -0.609375 -0.890625 -2.25q0 -0.78125 0.34375 -1.265625q0.34375 -0.484375 1.15625 -1.09375q-0.53125 -0.359375 -0.53125 -1.3125q0 -0.3125 0.46875 -1.1875l0.171875 -0.3125q-1.5 -0.671875 -1.5 -2.859375q0 -3.25 3.546875 -3.25q0.921875 0 1.703125 0.1875l0.28125 0.0625l2.8125 -0.078125l0 1.21875l-1.8125 -0.046875q0.640625 0.625 0.640625 1.90625q0 1.78125 -0.890625 2.5q-0.890625 0.703125 -2.78125 0.703125q-0.515625 0 -0.9375 -0.078125q-0.34375 0.84375 -0.34375 1.09375q0 0.578125 0.359375 0.734375q0.375 0.140625 2.1875 0.140625q1.828125 0 2.625 0.578125q0.796875 0.5625 0.796875 2.203125q0 3.03125 -4.21875 3.03125zm-2.671875 -2.984375q0 1.0 0.5625 1.390625q0.5625 0.390625 2.0625 0.390625q1.515625 0 2.171875 -0.421875q0.65625 -0.40625 0.65625 -1.390625q0 -0.984375 -0.484375 -1.265625q-0.46875 -0.28125 -1.859375 -0.28125l-2.046875 -0.09375q-0.625 0.453125 -0.84375 0.796875q-0.21875 0.34375 -0.21875 0.875zm0.125 -7.921875q0 1.125 0.5 1.59375q0.515625 0.46875 1.671875 0.46875q1.15625 0 1.640625 -0.46875q0.5 -0.46875 0.5 -1.59375q0 -1.140625 -0.5 -1.609375q-0.484375 -0.484375 -1.640625 -0.484375q-1.15625 0 -1.671875 0.484375q-0.5 0.484375 -0.5 1.609375zm14.933105 5.265625l0.546875 -0.0625l0.046875 1.125q-2.171875 0.296875 -3.703125 0.296875q-2.0625 0 -2.921875 -1.1875q-0.84375 -1.1875 -0.84375 -3.6875q0 -5.0 3.96875 -5.0q1.921875 0 2.859375 1.078125q0.953125 1.0625 0.953125 3.359375l-0.078125 1.09375l-6.265625 0q0 1.578125 0.5625 2.34375q0.578125 0.75 1.984375 0.75q1.421875 0 2.890625 -0.109375zm-0.515625 -4.125q0 -1.75 -0.5625 -2.46875q-0.5625 -0.734375 -1.828125 -0.734375q-1.25 0 -1.890625 0.765625q-0.640625 0.765625 -0.65625 2.4375l4.9375 0zm4.9057617 5.296875l-1.421875 0l0 -9.5l1.40625 0l0 0.671875q1.421875 -0.859375 2.765625 -0.859375q1.765625 0 2.46875 0.96875q0.625 -0.375 1.625 -0.671875q1.0 -0.296875 1.765625 -0.296875q1.890625 0 2.546875 1.015625q0.65625 1.015625 0.65625 3.65625l0 5.015625l-1.421875 0l0 -4.984375q0 -1.96875 -0.390625 -2.703125q-0.375 -0.734375 -1.609375 -0.734375q-0.625 0 -1.296875 0.1875q-0.65625 0.171875 -1.015625 0.34375l-0.359375 0.171875q0.25 0.625 0.25 2.78125l0 4.9375l-1.4375 0l0 -4.90625q0 -2.046875 -0.375 -2.78125q-0.359375 -0.734375 -1.609375 -0.734375q-0.609375 0 -1.25 0.1875q-0.640625 0.171875 -0.984375 0.34375l-0.3125 0.171875l0 7.71875zm20.627869 -1.171875l0.546875 -0.0625l0.046875 1.125q-2.171875 0.296875 -3.703125 0.296875q-2.0625 0 -2.921875 -1.1875q-0.84375 -1.1875 -0.84375 -3.6875q0 -5.0 3.96875 -5.0q1.921875 0 2.859375 1.078125q0.953125 1.0625 0.953125 3.359375l-0.078125 1.09375l-6.265625 0q0 1.578125 0.5625 2.34375q0.578125 0.75 1.984375 0.75q1.421875 0 2.890625 -0.109375zm-0.515625 -4.125q0 -1.75 -0.5625 -2.46875q-0.5625 -0.734375 -1.828125 -0.734375q-1.25 0 -1.890625 0.765625q-0.640625 0.765625 -0.65625 2.4375l4.9375 0zm4.9057617 5.296875l-1.421875 0l0 -9.5l1.40625 0l0 0.671875q1.53125 -0.859375 2.9375 -0.859375q1.90625 0 2.5625 1.03125q0.65625 1.015625 0.65625 3.640625l0 5.015625l-1.40625 0l0 -4.984375q0 -1.96875 -0.390625 -2.703125q-0.390625 -0.734375 -1.671875 -0.734375q-0.609375 0 -1.28125 0.1875q-0.671875 0.171875 -1.03125 0.34375l-0.359375 0.171875l0 7.71875zm13.502808 -8.265625l-3.015625 0l0 4.546875q0 1.625 0.234375 2.140625q0.25 0.515625 1.140625 0.515625l1.6875 -0.109375l0.09375 1.171875q-1.265625 0.203125 -1.9375 0.203125q-1.484375 0 -2.0625 -0.71875q-0.5625 -0.71875 -0.5625 -2.75l0 -5.0l-1.34375 0l0 -1.234375l1.34375 0l0 -2.90625l1.40625 0l0 2.90625l3.015625 0l0 1.234375zm8.71521 -0.15625q-2.0625 0 -2.0625 1.453125q0 0.65625 0.46875 0.9375q0.484375 0.28125 2.171875 0.578125q1.6875 0.28125 2.390625 0.8125q0.703125 0.53125 0.703125 2.0q0 1.46875 -0.9375 2.15625q-0.9375 0.671875 -2.75 0.671875q-1.171875 0 -2.765625 -0.265625l-0.578125 -0.09375l0.078125 -1.234375q2.171875 0.328125 3.265625 0.328125q1.109375 0 1.6875 -0.34375q0.578125 -0.359375 0.578125 -1.1875q0 -0.828125 -0.5 -1.125q-0.484375 -0.296875 -2.15625 -0.5625q-1.671875 -0.265625 -2.375 -0.78125q-0.703125 -0.515625 -0.703125 -1.890625q0 -1.390625 0.96875 -2.046875q0.984375 -0.671875 2.453125 -0.671875q1.15625 0 2.90625 0.265625l0.53125 0.09375l-0.046875 1.21875q-2.109375 -0.3125 -3.328125 -0.3125zm11.628296 -1.078125l1.421875 0l0 9.5l-1.421875 0l0 -0.671875q-1.421875 0.859375 -2.8125 0.859375q-1.9375 0 -2.578125 -1.0q-0.640625 -1.015625 -0.640625 -3.734375l0 -4.953125l1.4375 0l0 4.9375q0 2.078125 0.359375 2.78125q0.359375 0.703125 1.625 0.703125q0.625 0 1.265625 -0.171875q0.65625 -0.1875 1.0 -0.359375l0.34375 -0.171875l0 -7.71875zm3.984558 13.71875l0 -13.71875l1.40625 0l0 0.6875q1.4375 -0.875 2.84375 -0.875q1.796875 0 2.609375 1.15625q0.828125 1.140625 0.828125 3.78125q0 2.640625 -0.96875 3.796875q-0.953125 1.140625 -3.171875 1.140625q-1.15625 0 -2.125 -0.203125l0 4.234375l-1.421875 0zm4.046875 -12.640625q-0.578125 0 -1.234375 0.203125q-0.65625 0.1875 -1.03125 0.375l-0.359375 0.1875l0 6.40625q1.34375 0.203125 2.046875 0.203125q1.546875 0 2.15625 -0.875q0.625 -0.875 0.625 -2.84375q0 -1.984375 -0.5625 -2.8125q-0.5625 -0.84375 -1.640625 -0.84375zm5.784973 12.640625l0 -13.71875l1.40625 0l0 0.6875q1.4375 -0.875 2.84375 -0.875q1.796875 0 2.609375 1.15625q0.828125 1.140625 0.828125 3.78125q0 2.640625 -0.96875 3.796875q-0.953125 1.140625 -3.171875 1.140625q-1.15625 0 -2.125 -0.203125l0 4.234375l-1.421875 0zm4.046875 -12.640625q-0.578125 0 -1.234375 0.203125q-0.65625 0.1875 -1.03125 0.375l-0.359375 0.1875l0 6.40625q1.34375 0.203125 2.046875 0.203125q1.546875 0 2.15625 -0.875q0.625 -0.875 0.625 -2.84375q0 -1.984375 -0.5625 -2.8125q-0.5625 -0.84375 -1.640625 -0.84375zm5.363098 3.65625q0 -2.609375 0.921875 -3.765625q0.9375 -1.15625 3.140625 -1.15625q2.21875 0 3.140625 1.15625q0.921875 1.15625 0.921875 3.765625q0 2.59375 -0.875 3.78125q-0.875 1.171875 -3.1875 1.171875q-2.3125 0 -3.1875 -1.171875q-0.875 -1.1875 -0.875 -3.78125zm1.453125 -0.03125q0 2.078125 0.5 2.921875q0.515625 0.828125 2.109375 0.828125q1.609375 0 2.109375 -0.828125q0.5 -0.828125 0.5 -2.90625q0 -2.09375 -0.5625 -2.875q-0.546875 -0.796875 -2.046875 -0.796875q-1.484375 0 -2.046875 0.796875q-0.5625 0.78125 -0.5625 2.859375zm8.819275 4.796875l0 -9.5l1.40625 0l0 1.296875q1.640625 -1.140625 3.46875 -1.5l0 1.4375q-0.796875 0.15625 -1.671875 0.484375q-0.859375 0.3125 -1.3125 0.5625l-0.46875 0.25l0 6.96875l-1.421875 0zm11.361328 -8.265625l-3.015625 0l0 4.546875q0 1.625 0.234375 2.140625q0.25 0.515625 1.140625 0.515625l1.6875 -0.109375l0.09375 1.171875q-1.265625 0.203125 -1.9375 0.203125q-1.484375 0 -2.0625 -0.71875q-0.5625 -0.71875 -0.5625 -2.75l0 -5.0l-1.34375 0l0 -1.234375l1.34375 0l0 -2.90625l1.40625 0l0 2.90625l3.015625 0l0 1.234375z" fill-rule="nonzero"></path></g></svg>

