<?xml version="1.0" standalone="yes"?>

<svg version="1.1" viewBox="0.0 0.0 761.1207349081365 565.8057742782153" fill="none" stroke="none" stroke-linecap="square" stroke-miterlimit="10" xmlns="http://www.w3.org/2000/svg" xmlns:xlink="http://www.w3.org/1999/xlink"><clipPath id="p.0"><path d="m0 0l761.1207 0l0 565.8058l-761.1207 0l0 -565.8058z" clip-rule="nonzero"></path></clipPath><g clip-path="url(#p.0)"><path fill="#000000" fill-opacity="0.0" d="m0 0l761.1207 0l0 565.8058l-761.1207 0z" fill-rule="nonzero"></path><path fill="#000000" fill-opacity="0.0" d="m28.955381 209.2546l0 0c0 -44.4263 36.014633 -80.44095 80.44094 -80.44095l0 0c21.334267 0 41.79473 8.475006 56.880333 23.560608c15.085617 15.085602 23.560608 35.54608 23.560608 56.88034l0 0c0 44.4263 -36.014633 80.44093 -80.44094 80.44093l0 0c-44.426308 0 -80.44094 -36.014633 -80.44094 -80.44093z" fill-rule="nonzero"></path><path stroke="#ffffff" stroke-width="2.0" stroke-linejoin="round" stroke-linecap="butt" d="m28.955381 209.2546l0 0c0 -44.4263 36.014633 -80.44095 80.44094 -80.44095l0 0c21.334267 0 41.79473 8.475006 56.880333 23.560608c15.085617 15.085602 23.560608 35.54608 23.560608 56.88034l0 0c0 44.4263 -36.014633 80.44093 -80.44094 80.44093l0 0c-44.426308 0 -80.44094 -36.014633 -80.44094 -80.44093z" fill-rule="nonzero"></path><path fill="#ffffff" d="m82.74518 217.79459l-5.921875 0l0 -16.609375l5.921875 0q4.0625 0 5.375 3.21875q0.765625 1.84375 0.765625 4.84375q0 6.265625 -3.125 7.90625q-1.234375 0.640625 -3.015625 0.640625zm4.25 -8.546875q0 -4.765625 -2.140625 -5.953125q-0.859375 -0.46875 -2.109375 -0.46875l-4.078125 0l0 13.34375l4.078125 0q4.25 0 4.25 -6.921875zm13.151825 7.0625l0.6875 -0.078125l0.046875 1.421875q-2.734375 0.375 -4.671875 0.375q-2.59375 0 -3.671875 -1.5q-1.078125 -1.5 -1.078125 -4.65625q0 -6.3125 5.015625 -6.3125q2.421875 0 3.625 1.359375q1.203125 1.34375 1.203125 4.25l-0.109375 1.375l-7.90625 0q0 1.984375 0.71875 2.953125q0.71875 0.953125 2.5 0.953125q1.796875 0 3.640625 -0.140625zm-0.65625 -5.21875q0 -2.203125 -0.703125 -3.109375q-0.703125 -0.921875 -2.3125 -0.921875q-1.59375 0 -2.390625 0.96875q-0.796875 0.953125 -0.828125 3.0625l6.234375 0zm8.38559 -3.921875q-2.625 0 -2.625 1.8125q0 0.84375 0.59375 1.203125q0.609375 0.34375 2.75 0.71875q2.140625 0.359375 3.015625 1.03125q0.890625 0.671875 0.890625 2.53125q0 1.84375 -1.1875 2.703125q-1.1875 0.859375 -3.46875 0.859375q-1.484375 0 -3.5 -0.328125l-0.71875 -0.125l0.09375 -1.5625q2.734375 0.40625 4.125 0.40625q1.390625 0 2.125 -0.4375q0.734375 -0.4375 0.734375 -1.484375q0 -1.046875 -0.625 -1.421875q-0.625 -0.375 -2.734375 -0.703125q-2.109375 -0.34375 -3.0 -0.984375q-0.890625 -0.65625 -0.890625 -2.40625q0 -1.75 1.234375 -2.578125q1.234375 -0.84375 3.09375 -0.84375q1.453125 0 3.671875 0.328125l0.671875 0.125l-0.046875 1.53125q-2.671875 -0.375 -4.203125 -0.375zm7.394348 10.625l0 -12.0l1.796875 0l0 12.0l-1.796875 0zm0 -14.71875l0 -2.078125l1.796875 0l0 2.078125l-1.796875 0zm9.880981 20.359375q-2.875 0 -4.015625 -0.78125q-1.140625 -0.78125 -1.140625 -2.84375q0 -0.984375 0.421875 -1.59375q0.4375 -0.609375 1.46875 -1.375q-0.671875 -0.46875 -0.671875 -1.65625q0 -0.421875 0.609375 -1.515625l0.203125 -0.390625q-1.890625 -0.859375 -1.890625 -3.625q0 -4.09375 4.484375 -4.09375q1.15625 0 2.140625 0.234375l0.359375 0.078125l3.546875 -0.109375l0 1.546875l-2.28125 -0.046875q0.796875 0.78125 0.796875 2.390625q0 2.265625 -1.125 3.171875q-1.109375 0.890625 -3.5 0.890625q-0.65625 0 -1.1875 -0.09375q-0.421875 1.046875 -0.421875 1.359375q0 0.75 0.453125 0.9375q0.453125 0.171875 2.75 0.171875q2.3125 0 3.3125 0.71875q1.015625 0.71875 1.015625 2.8125q0 3.8125 -5.328125 3.8125zm-3.390625 -3.765625q0 1.265625 0.703125 1.75q0.71875 0.5 2.625 0.5q1.90625 0 2.734375 -0.53125q0.828125 -0.515625 0.828125 -1.765625q0 -1.234375 -0.609375 -1.59375q-0.59375 -0.359375 -2.34375 -0.359375l-2.59375 -0.109375q-0.78125 0.578125 -1.0625 1.0q-0.28125 0.4375 -0.28125 1.109375zm0.171875 -10.0q0 1.40625 0.640625 2.015625q0.640625 0.59375 2.09375 0.59375q1.46875 0 2.09375 -0.59375q0.625 -0.609375 0.625 -2.03125q0 -1.4375 -0.625 -2.03125q-0.625 -0.609375 -2.09375 -0.609375q-1.453125 0 -2.09375 0.625q-0.640625 0.609375 -0.640625 2.03125zm12.726593 8.125l-1.796875 0l0 -12.0l1.765625 0l0 0.84375q1.953125 -1.078125 3.71875 -1.078125q2.40625 0 3.234375 1.296875q0.828125 1.296875 0.828125 4.59375l0 6.34375l-1.78125 0l0 -6.28125q0 -2.5 -0.5 -3.421875q-0.484375 -0.921875 -2.09375 -0.921875q-0.765625 0 -1.625 0.234375q-0.84375 0.21875 -1.296875 0.4375l-0.453125 0.203125l0 9.75z" fill-rule="nonzero"></path><path fill="#000000" fill-opacity="0.0" d="m104.2021 449.2546l0 0c0 -44.42633 36.014633 -80.44095 80.44095 -80.44095l0 0c21.334259 0 41.794724 8.475006 56.880325 23.560608c15.085602 15.085602 23.560608 35.54605 23.560608 56.88034l0 0c0 44.4263 -36.014633 80.44095 -80.44093 80.44095l0 0c-44.426315 0 -80.44095 -36.01465 -80.44095 -80.44095z" fill-rule="nonzero"></path><path stroke="#ffffff" stroke-width="2.0" stroke-linejoin="round" stroke-linecap="butt" d="m104.2021 449.2546l0 0c0 -44.42633 36.014633 -80.44095 80.44095 -80.44095l0 0c21.334259 0 41.794724 8.475006 56.880325 23.560608c15.085602 15.085602 23.560608 35.54605 23.560608 56.88034l0 0c0 44.4263 -36.014633 80.44095 -80.44093 80.44095l0 0c-44.426315 0 -80.44095 -36.01465 -80.44095 -80.44095z" fill-rule="nonzero"></path><path fill="#ffffff" d="m162.26927 457.52896q-2.484375 0.5 -4.453125 0.5q-1.96875 0 -3.1875 -0.53125q-1.203125 -0.546875 -1.859375 -1.6875q-0.65625 -1.140625 -0.90625 -2.609375q-0.25 -1.484375 -0.25 -3.6875q0 -2.203125 0.25 -3.703125q0.25 -1.5 0.90625 -2.65625q0.65625 -1.15625 1.859375 -1.671875q1.203125 -0.53125 3.125 -0.53125q1.921875 0 4.515625 0.53125l-0.078125 1.546875q-2.421875 -0.421875 -4.3125 -0.421875q-2.640625 0 -3.5 1.578125q-0.84375 1.5625 -0.84375 5.359375q0 1.890625 0.140625 3.046875q0.15625 1.140625 0.609375 2.078125q0.46875 0.921875 1.34375 1.3125q0.875 0.390625 2.5625 0.390625q1.703125 0 4.0 -0.421875l0.078125 1.578125zm2.1809692 -5.75q0 -3.296875 1.171875 -4.75q1.171875 -1.46875 3.96875 -1.46875q2.796875 0 3.953125 1.46875q1.171875 1.453125 1.171875 4.75q0 3.28125 -1.109375 4.765625q-1.09375 1.484375 -4.03125 1.484375q-2.921875 0 -4.03125 -1.484375q-1.09375 -1.484375 -1.09375 -4.765625zm1.84375 -0.046875q0 2.625 0.625 3.6875q0.640625 1.0625 2.671875 1.0625q2.03125 0 2.65625 -1.046875q0.625 -1.046875 0.625 -3.6875q0 -2.640625 -0.703125 -3.640625q-0.6875 -1.0 -2.578125 -1.0q-1.875 0 -2.59375 1.0q-0.703125 1.0 -0.703125 3.625zm20.562592 -11.171875l0 17.234375l-1.765625 0l0 -0.8125q-1.859375 1.046875 -3.65625 1.046875q-0.953125 0 -1.671875 -0.234375q-0.71875 -0.234375 -1.34375 -0.859375q-1.296875 -1.296875 -1.296875 -4.78125q0 -3.5 1.15625 -5.046875q1.171875 -1.546875 3.859375 -1.546875q1.390625 0 2.953125 0.3125l0 -5.3125l1.765625 0zm-7.046875 15.078125q0.375 0.453125 0.8125 0.625q0.4375 0.15625 1.109375 0.15625q0.6875 0 1.53125 -0.21875q0.859375 -0.234375 1.34375 -0.453125l0.484375 -0.203125l0 -8.140625q-1.546875 -0.296875 -2.859375 -0.296875q-1.828125 0 -2.546875 1.171875q-0.71875 1.15625 -0.71875 3.609375q0 2.78125 0.84375 3.75zm10.539719 2.15625l0 -12.0l1.796875 0l0 12.0l-1.796875 0zm0 -14.71875l0 -2.078125l1.796875 0l0 2.078125l-1.796875 0zm7.0528564 14.71875l-1.796875 0l0 -12.0l1.765625 0l0 0.84375q1.953125 -1.078125 3.71875 -1.078125q2.40625 0 3.234375 1.296875q0.828125 1.296875 0.828125 4.59375l0 6.34375l-1.78125 0l0 -6.28125q0 -2.5 -0.5 -3.421875q-0.484375 -0.921875 -2.09375 -0.921875q-0.765625 0 -1.625 0.234375q-0.84375 0.21875 -1.296875 0.4375l-0.453125 0.203125l0 9.75zm15.71608 5.640625q-2.875 0 -4.015625 -0.78125q-1.140625 -0.78125 -1.140625 -2.84375q0 -0.984375 0.421875 -1.59375q0.4375 -0.609375 1.46875 -1.375q-0.671875 -0.46875 -0.671875 -1.65625q0 -0.421875 0.609375 -1.515625l0.203125 -0.390625q-1.890625 -0.859375 -1.890625 -3.625q0 -4.09375 4.484375 -4.09375q1.15625 0 2.140625 0.234375l0.359375 0.078125l3.546875 -0.109375l0 1.546875l-2.28125 -0.046875q0.796875 0.78125 0.796875 2.390625q0 2.265625 -1.125 3.171875q-1.109375 0.890625 -3.5 0.890625q-0.65625 0 -1.1875 -0.09375q-0.421875 1.046875 -0.421875 1.359375q0 0.75 0.453125 0.9375q0.453125 0.171875 2.75 0.171875q2.3125 0 3.3125 0.71875q1.015625 0.71875 1.015625 2.8125q0 3.8125 -5.328125 3.8125zm-3.390625 -3.765625q0 1.265625 0.703125 1.75q0.71875 0.5 2.625 0.5q1.90625 0 2.734375 -0.53125q0.828125 -0.515625 0.828125 -1.765625q0 -1.234375 -0.609375 -1.59375q-0.59375 -0.359375 -2.34375 -0.359375l-2.59375 -0.109375q-0.78125 0.578125 -1.0625 1.0q-0.28125 0.4375 -0.28125 1.109375zm0.171875 -10.0q0 1.40625 0.640625 2.015625q0.640625 0.59375 2.09375 0.59375q1.46875 0 2.09375 -0.59375q0.625 -0.609375 0.625 -2.03125q0 -1.4375 -0.625 -2.03125q-0.625 -0.609375 -2.09375 -0.609375q-1.453125 0 -2.09375 0.625q-0.640625 0.609375 -0.640625 2.03125z" fill-rule="nonzero"></path><path fill="#000000" fill-opacity="0.0" d="m571.28345 196.06824l0 0c0 -44.4263 36.01465 -80.44094 80.44098 -80.44094l0 0c21.334229 0 41.79474 8.475006 56.88031 23.5606c15.085632 15.085617 23.560608 35.54608 23.560608 56.88034l0 0c0 44.426315 -36.01465 80.44095 -80.44092 80.44095l0 0c-44.42633 0 -80.44098 -36.014633 -80.44098 -80.44095z" fill-rule="nonzero"></path><path stroke="#ffffff" stroke-width="2.0" stroke-linejoin="round" stroke-linecap="butt" d="m571.28345 196.06824l0 0c0 -44.4263 36.01465 -80.44094 80.44098 -80.44094l0 0c21.334229 0 41.79474 8.475006 56.88031 23.5606c15.085632 15.085617 23.560608 35.54608 23.560608 56.88034l0 0c0 44.426315 -36.01465 80.44095 -80.44092 80.44095l0 0c-44.42633 0 -80.44098 -36.014633 -80.44098 -80.44095z" fill-rule="nonzero"></path><path fill="#ffffff" d="m614.633 189.6551l0 -1.65625l12.0 0l0 1.65625l-5.0625 0l0 14.953125l-1.828125 0l0 -14.953125l-5.109375 0zm22.202087 13.46875l0.6875 -0.078125l0.046875 1.421875q-2.734375 0.375 -4.671875 0.375q-2.59375 0 -3.671875 -1.5q-1.078125 -1.5 -1.078125 -4.65625q0 -6.3125 5.015625 -6.3125q2.421875 0 3.625 1.359375q1.203125 1.34375 1.203125 4.25l-0.109375 1.375l-7.90625 0q0 1.984375 0.71875 2.953125q0.71875 0.953125 2.5 0.953125q1.796875 0 3.640625 -0.140625zm-0.65625 -5.21875q0 -2.203125 -0.703125 -3.109375q-0.703125 -0.921875 -2.3125 -0.921875q-1.59375 0 -2.390625 0.96875q-0.796875 0.953125 -0.828125 3.0625l6.234375 0zm8.38562 -3.921875q-2.625 0 -2.625 1.8125q0 0.84375 0.59375 1.203125q0.609375 0.34375 2.75 0.71875q2.140625 0.359375 3.015625 1.03125q0.890625 0.671875 0.890625 2.53125q0 1.84375 -1.1875 2.703125q-1.1875 0.859375 -3.46875 0.859375q-1.484375 0 -3.5 -0.328125l-0.71875 -0.125l0.09375 -1.5625q2.734375 0.40625 4.125 0.40625q1.390625 0 2.125 -0.4375q0.734375 -0.4375 0.734375 -1.484375q0 -1.046875 -0.625 -1.421875q-0.625 -0.375 -2.734375 -0.703125q-2.109375 -0.34375 -3.0 -0.984375q-0.890625 -0.65625 -0.890625 -2.40625q0 -1.75 1.234375 -2.578125q1.234375 -0.84375 3.09375 -0.84375q1.453125 0 3.671875 0.328125l0.671875 0.125l-0.046875 1.53125q-2.671875 -0.375 -4.203125 -0.375zm13.597473 0.1875l-3.8125 0l0 5.734375q0 2.0625 0.296875 2.71875q0.3125 0.640625 1.4375 0.640625l2.125 -0.140625l0.125 1.484375q-1.609375 0.265625 -2.453125 0.265625q-1.859375 0 -2.578125 -0.90625q-0.71875 -0.921875 -0.71875 -3.484375l0 -6.3125l-1.71875 0l0 -1.5625l1.71875 0l0 -3.671875l1.765625 0l0 3.671875l3.8125 0l0 1.5625zm2.2208252 10.4375l0 -12.0l1.796875 0l0 12.0l-1.796875 0zm0 -14.71875l0 -2.078125l1.796875 0l0 2.078125l-1.796875 0zm7.0528564 14.71875l-1.796875 0l0 -12.0l1.765625 0l0 0.84375q1.953125 -1.078125 3.71875 -1.078125q2.40625 0 3.234375 1.296875q0.828125 1.296875 0.828125 4.59375l0 6.34375l-1.78125 0l0 -6.28125q0 -2.5 -0.5 -3.421875q-0.484375 -0.921875 -2.09375 -0.921875q-0.765625 0 -1.625 0.234375q-0.84375 0.21875 -1.296875 0.4375l-0.453125 0.203125l0 9.75zm15.7161255 5.640625q-2.875 0 -4.015625 -0.78125q-1.140625 -0.78125 -1.140625 -2.84375q0 -0.984375 0.421875 -1.59375q0.4375 -0.609375 1.46875 -1.375q-0.671875 -0.46875 -0.671875 -1.65625q0 -0.421875 0.609375 -1.515625l0.203125 -0.390625q-1.890625 -0.859375 -1.890625 -3.625q0 -4.09375 4.484375 -4.09375q1.15625 0 2.140625 0.234375l0.359375 0.078125l3.546875 -0.109375l0 1.546875l-2.28125 -0.046875q0.796875 0.78125 0.796875 2.390625q0 2.265625 -1.125 3.171875q-1.109375 0.890625 -3.5 0.890625q-0.65625 0 -1.1875 -0.09375q-0.421875 1.046875 -0.421875 1.359375q0 0.75 0.453125 0.9375q0.453125 0.171875 2.75 0.171875q2.3125 0 3.3125 0.71875q1.015625 0.71875 1.015625 2.8125q0 3.8125 -5.328125 3.8125zm-3.390625 -3.765625q0 1.265625 0.703125 1.75q0.71875 0.5 2.625 0.5q1.90625 0 2.734375 -0.53125q0.828125 -0.515625 0.828125 -1.765625q0 -1.234375 -0.609375 -1.59375q-0.59375 -0.359375 -2.34375 -0.359375l-2.59375 -0.109375q-0.78125 0.578125 -1.0625 1.0q-0.28125 0.4375 -0.28125 1.109375zm0.171875 -10.0q0 1.40625 0.640625 2.015625q0.640625 0.59375 2.09375 0.59375q1.46875 0 2.09375 -0.59375q0.625 -0.609375 0.625 -2.03125q0 -1.4375 -0.625 -2.03125q-0.625 -0.609375 -2.09375 -0.609375q-1.453125 0 -2.09375 0.625q-0.640625 0.609375 -0.640625 2.03125z" fill-rule="nonzero"></path><path fill="#000000" fill-opacity="0.0" d="m265.08398 306.9239l0 0c0 -62.003754 50.263977 -112.267715 112.26773 -112.267715l0 0c29.775238 0 58.330963 11.828171 79.385254 32.882446c21.05429 21.054276 32.882446 49.61 32.882446 79.38527l0 0c0 62.003754 -50.263947 112.2677 -112.2677 112.2677l0 0c-62.003754 0 -112.26773 -50.263947 -112.26773 -112.2677z" fill-rule="nonzero"></path><path stroke="#ffffff" stroke-width="1.0" stroke-linejoin="round" stroke-linecap="butt" stroke-dasharray="4.0,3.0" d="m265.08398 306.9239l0 0c0 -62.003754 50.263977 -112.267715 112.26773 -112.267715l0 0c29.775238 0 58.330963 11.828171 79.385254 32.882446c21.05429 21.054276 32.882446 49.61 32.882446 79.38527l0 0c0 62.003754 -50.263947 112.2677 -112.2677 112.2677l0 0c-62.003754 0 -112.26773 -50.263947 -112.26773 -112.2677z" fill-rule="nonzero"></path><path fill="#ffffff" fill-opacity="0.2192" d="m279.85565 306.9239l0 0c0 -53.845596 43.65045 -97.49606 97.49606 -97.49606l0 0c25.857544 0 50.656067 10.271866 68.940125 28.555939c18.284058 18.284058 28.555939 43.08255 28.555939 68.940125l0 0c0 53.84558 -43.650482 97.49606 -97.49606 97.49606l0 0c-53.84561 0 -97.49606 -43.650482 -97.49606 -97.49606z" fill-rule="nonzero"></path><path stroke="#ffffff" stroke-width="2.0" stroke-linejoin="round" stroke-linecap="butt" d="m279.85565 306.9239l0 0c0 -53.845596 43.65045 -97.49606 97.49606 -97.49606l0 0c25.857544 0 50.656067 10.271866 68.940125 28.555939c18.284058 18.284058 28.555939 43.08255 28.555939 68.940125l0 0c0 53.84558 -43.650482 97.49606 -97.49606 97.49606l0 0c-53.84561 0 -97.49606 -43.650482 -97.49606 -97.49606z" fill-rule="nonzero"></path><path fill="#ffffff" d="m320.69 315.4639l4.5625 -16.609375l4.03125 0l4.5625 16.609375l-1.828125 0l-1.203125 -4.265625l-7.109375 0l-1.1875 4.265625l-1.828125 0zm5.953125 -15.03125l-2.515625 9.109375l6.28125 0l-2.515625 -9.109375l-1.25 0zm9.50708 15.03125l0 -12.0l1.765625 0l0 1.625q2.09375 -1.4375 4.390625 -1.890625l0 1.828125q-1.0 0.1875 -2.09375 0.59375q-1.09375 0.40625 -1.671875 0.71875l-0.59375 0.3125l0 8.8125l-1.796875 0zm12.788361 -12.234375q0.796875 0 2.6875 0.28125l0.578125 0.078125l-0.078125 1.453125q-1.921875 -0.203125 -2.828125 -0.203125q-2.046875 0 -2.78125 0.96875q-0.71875 0.96875 -0.71875 3.59375q0 2.625 0.671875 3.65625q0.6875 1.03125 2.84375 1.03125l2.84375 -0.203125l0.0625 1.484375q-2.234375 0.328125 -3.328125 0.328125q-2.8125 0 -3.890625 -1.4375q-1.0625 -1.4375 -1.0625 -4.859375q0 -3.421875 1.15625 -4.796875q1.15625 -1.375 3.84375 -1.375zm7.7764587 12.234375l-1.796875 0l0 -17.234375l1.796875 0l0 5.90625q1.921875 -0.90625 3.6875 -0.90625q2.40625 0 3.234375 1.296875q0.828125 1.296875 0.828125 4.59375l0 6.34375l-1.796875 0l0 -6.28125q0 -2.5 -0.5 -3.421875q-0.484375 -0.921875 -2.078125 -0.921875q-1.5 0 -2.921875 0.546875l-0.453125 0.171875l0 9.90625zm13.38797 -10.4375l0 10.4375l-1.796875 0l0 -10.4375l-1.515625 0l0 -1.5625l1.515625 0l0 -1.078125q0 -2.546875 0.71875 -3.46875q0.71875 -0.921875 2.515625 -0.921875l2.421875 0.171875l-0.015625 1.484375q-1.34375 -0.046875 -2.21875 -0.046875q-0.875 0 -1.25 0.578125q-0.375 0.5625 -0.375 2.21875l0 1.0625l3.484375 0l0 1.5625l-3.484375 0zm14.115845 2.0625l0 6.140625q0.0625 0.890625 1.390625 1.0625l-0.078125 1.40625q-1.890625 0 -2.859375 -0.953125q-2.15625 0.953125 -4.3125 0.953125q-1.65625 0 -2.53125 -0.921875q-0.859375 -0.9375 -0.859375 -2.6875q0 -1.765625 0.890625 -2.59375q0.890625 -0.828125 2.78125 -1.015625l3.78125 -0.359375l0 -1.03125q0 -1.21875 -0.53125 -1.75q-0.53125 -0.53125 -1.4375 -0.53125q-1.921875 0 -3.984375 0.234375l-0.75 0.078125l-0.078125 -1.375q2.640625 -0.515625 4.6875 -0.515625q2.046875 0 2.96875 0.9375q0.921875 0.921875 0.921875 2.921875zm-7.390625 4.890625q0 2.21875 1.8125 2.21875q1.640625 0 3.21875 -0.5625l0.5625 -0.1875l0 -3.953125l-3.5625 0.328125q-1.078125 0.09375 -1.5625 0.625q-0.46875 0.53125 -0.46875 1.53125zm15.430206 -8.75q0.796875 0 2.6875 0.28125l0.578125 0.078125l-0.078125 1.453125q-1.921875 -0.203125 -2.828125 -0.203125q-2.046875 0 -2.78125 0.96875q-0.71875 0.96875 -0.71875 3.59375q0 2.625 0.671875 3.65625q0.6875 1.03125 2.84375 1.03125l2.84375 -0.203125l0.0625 1.484375q-2.234375 0.328125 -3.328125 0.328125q-2.8125 0 -3.890625 -1.4375q-1.0625 -1.4375 -1.0625 -4.859375q0 -3.421875 1.15625 -4.796875q1.15625 -1.375 3.84375 -1.375zm14.135864 10.75l0.6875 -0.078125l0.046875 1.421875q-2.734375 0.375 -4.671875 0.375q-2.59375 0 -3.671875 -1.5q-1.078125 -1.5 -1.078125 -4.65625q0 -6.3125 5.015625 -6.3125q2.421875 0 3.625 1.359375q1.203125 1.34375 1.203125 4.25l-0.109375 1.375l-7.90625 0q0 1.984375 0.71875 2.953125q0.71875 0.953125 2.5 0.953125q1.796875 0 3.640625 -0.140625zm-0.65625 -5.21875q0 -2.203125 -0.703125 -3.109375q-0.703125 -0.921875 -2.3125 -0.921875q-1.59375 0 -2.390625 0.96875q-0.796875 0.953125 -0.828125 3.0625l6.234375 0zm4.5105896 0.9375l0 -1.671875l7.28125 0l0 1.671875l-7.28125 0zm12.652588 0.78125q0 3.59375 3.890625 3.59375q2.015625 0 3.03125 -0.84375q1.03125 -0.859375 1.03125 -2.75l0 -11.625l1.8125 0l0 11.5625q0 2.796875 -1.484375 4.046875q-1.46875 1.234375 -4.34375 1.234375q-2.875 0 -4.328125 -1.234375q-1.453125 -1.25 -1.453125 -4.046875l0 -11.5625l1.84375 0l0 11.625z" fill-rule="nonzero"></path><path fill="#000000" fill-opacity="0.0" d="m529.07874 412.33334l194.51428 0l8.572327 8.572327l0 42.86075l0 0l-194.51428 0l-8.572327 -8.572357l0 -42.860718z" fill-rule="nonzero"></path><path stroke="#ffffff" stroke-width="2.0" stroke-linejoin="round" stroke-linecap="butt" d="m529.07874 412.33334l194.51428 0l8.572327 8.572327l0 42.86075l0 0l-194.51428 0l-8.572327 -8.572357l0 -42.860718z" fill-rule="nonzero"></path><path fill="#ffffff" d="m575.46783 441.6055q0 3.59375 3.890625 3.59375q2.015625 0 3.03125 -0.84375q1.03125 -0.859375 1.03125 -2.75l0 -11.625l1.8125 0l0 11.5625q0 2.796875 -1.484375 4.046875q-1.46875 1.234375 -4.34375 1.234375q-2.875 0 -4.328125 -1.234375q-1.453125 -1.25 -1.453125 -4.046875l0 -11.5625l1.84375 0l0 11.625zm15.221619 4.984375l-1.796875 0l0 -12.0l1.765625 0l0 0.84375q1.953125 -1.078125 3.71875 -1.078125q2.40625 0 3.234375 1.296875q0.828125 1.296875 0.828125 4.59375l0 6.34375l-1.78125 0l0 -6.28125q0 -2.5 -0.5 -3.421875q-0.484375 -0.921875 -2.09375 -0.921875q-0.765625 0 -1.625 0.234375q-0.84375 0.21875 -1.296875 0.4375l-0.453125 0.203125l0 9.75zm15.575439 -12.234375q0.796875 0 2.6875 0.28125l0.578125 0.078125l-0.078125 1.453125q-1.921875 -0.203125 -2.828125 -0.203125q-2.046875 0 -2.78125 0.96875q-0.71875 0.96875 -0.71875 3.59375q0 2.625 0.671875 3.65625q0.6875 1.03125 2.84375 1.03125l2.84375 -0.203125l0.0625 1.484375q-2.234375 0.328125 -3.328125 0.328125q-2.8125 0 -3.890625 -1.4375q-1.0625 -1.4375 -1.0625 -4.859375q0 -3.421875 1.15625 -4.796875q1.15625 -1.375 3.84375 -1.375zm14.135864 10.75l0.6875 -0.078125l0.046875 1.421875q-2.734375 0.375 -4.671875 0.375q-2.59375 0 -3.671875 -1.5q-1.078125 -1.5 -1.078125 -4.65625q0 -6.3125 5.015625 -6.3125q2.421875 0 3.625 1.359375q1.203125 1.34375 1.203125 4.25l-0.109375 1.375l-7.90625 0q0 1.984375 0.71875 2.953125q0.71875 0.953125 2.5 0.953125q1.796875 0 3.640625 -0.140625zm-0.65625 -5.21875q0 -2.203125 -0.703125 -3.109375q-0.703125 -0.921875 -2.3125 -0.921875q-1.59375 0 -2.390625 0.96875q-0.796875 0.953125 -0.828125 3.0625l6.234375 0zm4.619934 6.703125l0 -12.0l1.765625 0l0 1.625q2.09375 -1.4375 4.390625 -1.890625l0 1.828125q-1.0 0.1875 -2.09375 0.59375q-1.09375 0.40625 -1.671875 0.71875l-0.59375 0.3125l0 8.8125l-1.796875 0zm14.50708 -10.4375l-3.8125 0l0 5.734375q0 2.0625 0.296875 2.71875q0.3125 0.640625 1.4375 0.640625l2.125 -0.140625l0.125 1.484375q-1.609375 0.265625 -2.453125 0.265625q-1.859375 0 -2.578125 -0.90625q-0.71875 -0.921875 -0.71875 -3.484375l0 -6.3125l-1.71875 0l0 -1.5625l1.71875 0l0 -3.671875l1.765625 0l0 3.671875l3.8125 0l0 1.5625zm10.689636 2.0625l0 6.140625q0.0625 0.890625 1.390625 1.0625l-0.078125 1.40625q-1.890625 0 -2.859375 -0.953125q-2.15625 0.953125 -4.3125 0.953125q-1.65625 0 -2.53125 -0.921875q-0.859375 -0.9375 -0.859375 -2.6875q0 -1.765625 0.890625 -2.59375q0.890625 -0.828125 2.78125 -1.015625l3.78125 -0.359375l0 -1.03125q0 -1.21875 -0.53125 -1.75q-0.53125 -0.53125 -1.4375 -0.53125q-1.921875 0 -3.984375 0.234375l-0.75 0.078125l-0.078125 -1.375q2.640625 -0.515625 4.6875 -0.515625q2.046875 0 2.96875 0.9375q0.921875 0.921875 0.921875 2.921875zm-7.390625 4.890625q0 2.21875 1.8125 2.21875q1.640625 0 3.21875 -0.5625l0.5625 -0.1875l0 -3.953125l-3.5625 0.328125q-1.078125 0.09375 -1.5625 0.625q-0.46875 0.53125 -0.46875 1.53125zm10.945862 3.484375l0 -12.0l1.796875 0l0 12.0l-1.796875 0zm0 -14.71875l0 -2.078125l1.796875 0l0 2.078125l-1.796875 0zm7.0528564 14.71875l-1.796875 0l0 -12.0l1.765625 0l0 0.84375q1.953125 -1.078125 3.71875 -1.078125q2.40625 0 3.234375 1.296875q0.828125 1.296875 0.828125 4.59375l0 6.34375l-1.78125 0l0 -6.28125q0 -2.5 -0.5 -3.421875q-0.484375 -0.921875 -2.09375 -0.921875q-0.765625 0 -1.625 0.234375q-0.84375 0.21875 -1.296875 0.4375l-0.453125 0.203125l0 9.75zm17.29419 -10.4375l-3.8125 0l0 5.734375q0 2.0625 0.296875 2.71875q0.3125 0.640625 1.4375 0.640625l2.125 -0.140625l0.125 1.484375q-1.609375 0.265625 -2.453125 0.265625q-1.859375 0 -2.578125 -0.90625q-0.71875 -0.921875 -0.71875 -3.484375l0 -6.3125l-1.71875 0l0 -1.5625l1.71875 0l0 -3.671875l1.765625 0l0 3.671875l3.8125 0l0 1.5625zm1.0802002 -1.5625l1.8125 0l3.0 10.4375l0.78125 0l3.03125 -10.4375l1.796875 0l-4.984375 17.328125l-1.8125 0l1.5625 -5.328125l-1.765625 0l-3.421875 -12.0z" fill-rule="nonzero"></path><path fill="#000000" fill-opacity="0.0" d="m184.04462 240.95801l100.81891 37.795288" fill-rule="nonzero"></path><path stroke="#ffffff" stroke-width="4.0" stroke-linejoin="round" stroke-linecap="butt" d="m184.04462 240.95801l100.81891 37.795288" fill-rule="nonzero"></path><path fill="#000000" fill-opacity="0.0" d="m249.62862 402.0761l49.732285 -38.362213" fill-rule="nonzero"></path><path stroke="#ffffff" stroke-width="4.0" stroke-linejoin="round" stroke-linecap="butt" d="m249.62862 402.0761l49.732285 -38.362213" fill-rule="nonzero"></path><path fill="#000000" fill-opacity="0.0" d="m470.35565 277.72177l108.50391 -48.6929" fill-rule="nonzero"></path><path stroke="#ffffff" stroke-width="4.0" stroke-linejoin="round" stroke-linecap="butt" d="m470.35565 277.72177l108.50391 -48.6929" fill-rule="nonzero"></path><path fill="#000000" fill-opacity="0.0" d="m446.29184 375.864l82.77164 62.173218" fill-rule="nonzero"></path><path stroke="#ffffff" stroke-width="2.0" stroke-linejoin="round" stroke-linecap="butt" stroke-dasharray="8.0,6.0" d="m446.29184 375.864l82.77164 62.173218" fill-rule="nonzero"></path><path fill="#000000" fill-opacity="0.0" d="m431.1422 364.8404l15.149628 11.023621" fill-rule="nonzero"></path><path stroke="#ffffff" stroke-width="2.0" stroke-linejoin="round" stroke-linecap="butt" stroke-dasharray="8.0,6.0" d="m431.1422 364.8404l15.149628 11.023621" fill-rule="nonzero"></path><path fill="#000000" fill-opacity="0.0" d="m427.20523 323.9817l0 38.236206" fill-rule="nonzero"></path><path stroke="#ffffff" stroke-width="2.0" stroke-linejoin="round" stroke-linecap="butt" stroke-dasharray="8.0,6.0" d="m427.20523 323.9817l0 38.236206" fill-rule="nonzero"></path><path fill="#000000" fill-opacity="0.0" d="m-0.0065616798 19.598425l761.1339 0l0 69.637794l-761.1339 0z" fill-rule="nonzero"></path><path fill="#ffffff" d="m26.542023 58.685925q0 5.999996 6.484375 5.999996q3.359375 0 5.046875 -1.4218712q1.703125 -1.421875 1.703125 -4.578125l0 -19.375l3.046875 0l0 19.28125q0 4.640625 -2.46875 6.734371q-2.453125 2.078125 -7.25 2.078125q-4.796875 0 -7.21875 -2.078125q-2.421875 -2.0937462 -2.421875 -6.734371l0 -19.28125l3.078125 0l0 19.375zm25.35373 8.312496l-3.0 0l0 -19.999996l2.96875 0l0 1.40625q3.234375 -1.8125 6.203125 -1.8125q4.0 0 5.375 2.171875q1.375 2.15625 1.375 7.671875l0 10.562496l-2.953125 0l0 -10.484371q0 -4.15625 -0.828125 -5.6875q-0.8125 -1.546875 -3.5 -1.546875q-1.28125 0 -2.703125 0.390625q-1.40625 0.375 -2.171875 0.734375l-0.765625 0.359375l0 16.234371zm25.964355 -20.406246q1.328125 0 4.484375 0.484375l0.953125 0.125l-0.109375 2.4375q-3.203125 -0.359375 -4.734375 -0.359375q-3.390625 0 -4.609375 1.625q-1.21875 1.609375 -1.21875 6.0q0 4.375 1.140625 6.09375q1.140625 1.7187462 4.734375 1.7187462l4.71875 -0.359375l0.125 2.484375q-3.71875 0.5625 -5.5625 0.5625q-4.6875 0 -6.46875 -2.40625q-1.765625 -2.4062462 -1.765625 -8.093746q0 -5.703125 1.90625 -8.0q1.921875 -2.3125 6.40625 -2.3125zm23.564987 17.921871l1.15625 -0.109375l0.078125 2.359375q-4.5625 0.640625 -7.796875 0.640625q-4.328125 0 -6.125 -2.5q-1.796875 -2.4999962 -1.796875 -7.781246q0 -10.53125 8.359375 -10.53125q4.046875 0 6.046875 2.265625q2.0 2.265625 2.0 7.09375l-0.171875 2.28125l-13.1875 0q0 3.328125 1.1875 4.9375q1.203125 1.5937462 4.1875 1.5937462q2.984375 0 6.0625 -0.25zm-1.078125 -8.671871q0 -3.6875 -1.1875 -5.203125q-1.171875 -1.515625 -3.84375 -1.515625q-2.65625 0 -4.0 1.59375q-1.328125 1.59375 -1.375 5.125l10.40625 0zm7.6687317 11.156246l0 -19.999996l2.96875 0l0 2.71875q3.46875 -2.40625 7.3125 -3.15625l0 3.03125q-1.671875 0.328125 -3.5 1.015625q-1.8125 0.671875 -2.78125 1.1875l-1.0 0.515625l0 14.687496l-3.0 0zm24.199356 -17.406246l-6.359375 0l0 9.5625q0 3.4375 0.5 4.53125q0.5 1.0781212 2.390625 1.0781212l3.546875 -0.25l0.203125 2.484375q-2.671875 0.4375 -4.078125 0.4375q-3.125 0 -4.328125 -1.515625q-1.1875 -1.515625 -1.1875 -5.796871l0 -10.53125l-2.84375 0l0 -2.59375l2.84375 0l0 -6.125l2.953125 0l0 6.125l6.359375 0l0 2.59375zm17.805618 3.453125l0 10.234375q0.125 1.4843712 2.3125 1.7656212l-0.109375 2.359375q-3.15625 0 -4.765625 -1.609375q-3.59375 1.609375 -7.203125 1.609375q-2.75 0 -4.203125 -1.5625q-1.4375 -1.5625 -1.4375 -4.484371q0 -2.921875 1.484375 -4.296875q1.484375 -1.375 4.640625 -1.703125l6.28125 -0.59375l0 -1.71875q0 -2.046875 -0.890625 -2.921875q-0.875 -0.890625 -2.390625 -0.890625q-3.203125 0 -6.640625 0.40625l-1.234375 0.125l-0.125 -2.28125q4.40625 -0.890625 7.796875 -0.890625q3.40625 0 4.9375 1.5625q1.546875 1.5625 1.546875 4.890625zm-12.3125 8.15625q0 3.6718712 3.03125 3.6718712q2.71875 0 5.359375 -0.9218712l0.921875 -0.3125l0 -6.59375l-5.921875 0.546875q-1.796875 0.171875 -2.59375 1.046875q-0.796875 0.875 -0.796875 2.5625zm18.227478 5.796871l0 -19.999996l3.0 0l0 19.999996l-3.0 0zm0 -24.515621l0 -3.484375l3.0 0l0 3.484375l-3.0 0zm11.7599945 24.515621l-3.0 0l0 -19.999996l2.96875 0l0 1.40625q3.234375 -1.8125 6.203125 -1.8125q4.0 0 5.375 2.171875q1.375 2.15625 1.375 7.671875l0 10.562496l-2.953125 0l0 -10.484371q0 -4.15625 -0.828125 -5.6875q-0.8125 -1.546875 -3.5 -1.546875q-1.28125 0 -2.703125 0.390625q-1.40625 0.375 -2.171875 0.734375l-0.765625 0.359375l0 16.234371zm28.839355 -17.406246l-6.359375 0l0 9.5625q0 3.4375 0.5 4.53125q0.5 1.0781212 2.390625 1.0781212l3.546875 -0.25l0.203125 2.484375q-2.671875 0.4375 -4.078125 0.4375q-3.125 0 -4.328125 -1.515625q-1.1875 -1.515625 -1.1875 -5.796871l0 -10.53125l-2.84375 0l0 -2.59375l2.84375 0l0 -6.125l2.953125 0l0 6.125l6.359375 0l0 2.59375zm1.8056183 -2.59375l3.0 0l5.0 17.406246l1.3125 0l5.046875 -17.406246l3.0 0l-8.3125 28.874996l-3.0 0l2.59375 -8.875l-2.953125 0l-5.6875 -19.999996zm21.038727 10.40625l0 -2.8125l12.125 0l0 2.8125l-12.125 0zm15.754364 9.593746l7.609375 -27.687496l6.71875 0l7.5937347 27.687496l-3.0312347 0l-2.0 -7.124996l-11.84375 0l-2.0 7.124996l-3.046875 0zm9.921875 -25.046871l-4.1875 15.171875l10.46875 0l-4.203125 -15.171875l-2.078125 0zm14.199356 5.046875l3.0 0l4.046875 17.406246l0.640625 0l4.765625 -16.999996l3.109375 0l4.765625 16.999996l0.671875 0l4.0 -17.406246l3.0 0l-4.75 19.999996l-5.0 0l-4.25 -15.640621l-4.234375 15.640621l-5.0 0l-4.765625 -19.999996zm46.245575 6.046875l0 10.234375q0.125 1.4843712 2.3125 1.7656212l-0.109375 2.359375q-3.15625 0 -4.765625 -1.609375q-3.59375 1.609375 -7.203125 1.609375q-2.75 0 -4.203125 -1.5625q-1.4375 -1.5625 -1.4375 -4.484371q0 -2.921875 1.484375 -4.296875q1.484375 -1.375 4.640625 -1.703125l6.28125 -0.59375l0 -1.71875q0 -2.046875 -0.890625 -2.921875q-0.875 -0.890625 -2.390625 -0.890625q-3.203125 0 -6.640625 0.40625l-1.234375 0.125l-0.125 -2.28125q4.40625 -0.890625 7.796875 -0.890625q3.40625 0 4.9375 1.5625q1.546875 1.5625 1.546875 4.890625zm-12.3125 8.15625q0 3.6718712 3.03125 3.6718712q2.71875 0 5.359375 -0.9218712l0.921875 -0.3125l0 -6.59375l-5.921875 0.546875q-1.796875 0.171875 -2.59375 1.046875q-0.796875 0.875 -0.796875 2.5625zm18.227478 5.796871l0 -19.999996l2.96875 0l0 2.71875q3.46875 -2.40625 7.3125 -3.15625l0 3.03125q-1.671875 0.328125 -3.5 1.015625q-1.8125 0.671875 -2.78125 1.1875l-1.0 0.515625l0 14.687496l-3.0 0zm27.44934 -2.484375l1.15625 -0.109375l0.078125 2.359375q-4.5625 0.640625 -7.796875 0.640625q-4.328125 0 -6.125 -2.5q-1.796875 -2.4999962 -1.796875 -7.781246q0 -10.53125 8.359375 -10.53125q4.046875 0 6.046875 2.265625q2.0 2.265625 2.0 7.09375l-0.171875 2.28125l-13.1875 0q0 3.328125 1.1875 4.9375q1.203125 1.5937462 4.1875 1.5937462q2.984375 0 6.0625 -0.25zm-1.078125 -8.671871q0 -3.6875 -1.1875 -5.203125q-1.171875 -1.515625 -3.84375 -1.515625q-2.65625 0 -4.0 1.59375q-1.328125 1.59375 -1.375 5.125l10.40625 0zm24.640594 -14.25q-6.0 0 -6.0 4.53125q0 2.515625 1.375 3.453125q1.375 0.9375 5.59375 1.890625q4.21875 0.9375 5.984375 2.4375q1.765625 1.5 1.765625 4.9375q0 8.515621 -8.84375 8.515621q-2.921875 0 -7.328125 -0.671875l-1.4375 -0.203125l0.328125 -2.5624962q5.4375 0.7187462 8.28125 0.7187462q5.921875 0 5.921875 -5.562496q0 -2.234375 -1.3125 -3.21875q-1.296875 -0.984375 -4.859375 -1.65625q-4.671875 -1.0 -6.640625 -2.578125q-1.953125 -1.578125 -1.953125 -5.3125q0 -7.4375 8.921875 -7.4375q2.921875 0 7.0 0.609375l1.359375 0.203125l-0.28125 2.59375q-5.5625 -0.6875 -7.875 -0.6875zm12.633087 15.375q0 -5.484375 1.953125 -7.921875q1.96875 -2.453125 6.625 -2.453125q4.65625 0 6.59375 2.453125q1.953125 2.4375 1.953125 7.921875q0 5.46875 -1.84375 7.953121q-1.84375 2.484375 -6.71875 2.484375q-4.875 0 -6.71875 -2.484375q-1.84375 -2.4843712 -1.84375 -7.953121zm3.078125 -0.0625q0 4.375 1.0625 6.140625q1.0625 1.7499962 4.4375 1.7499962q3.375 0 4.421875 -1.7343712q1.046875 -1.75 1.046875 -6.140625q0 -4.40625 -1.171875 -6.0625q-1.15625 -1.65625 -4.296875 -1.65625q-3.140625 0 -4.328125 1.65625q-1.171875 1.65625 -1.171875 6.046875zm22.76062 -7.3125l0 17.406246l-3.0 0l0 -17.406246l-2.515625 0l0 -2.59375l2.515625 0l0 -1.796875q0 -4.25 1.203125 -5.78125q1.203125 -1.546875 4.203125 -1.546875l4.03125 0.28125l-0.03125 2.484375q-2.25 -0.078125 -3.71875 -0.078125q-1.453125 0 -2.078125 0.96875q-0.609375 0.953125 -0.609375 3.703125l0 1.765625l5.796875 0l0 2.59375l-5.796875 0zm19.755615 0l-6.359375 0l0 9.5625q0 3.4375 0.5 4.53125q0.5 1.0781212 2.390625 1.0781212l3.546875 -0.25l0.203125 2.484375q-2.671875 0.4375 -4.078125 0.4375q-3.125 0 -4.328125 -1.515625q-1.1875 -1.515625 -1.1875 -5.796871l0 -10.53125l-2.84375 0l0 -2.59375l2.84375 0l0 -6.125l2.953125 0l0 6.125l6.359375 0l0 2.59375zm2.039978 -2.59375l3.0 0l4.046875 17.406246l0.640625 0l4.765625 -16.999996l3.109375 0l4.765625 16.999996l0.671875 0l4.0 -17.406246l3.0 0l-4.75 19.999996l-5.0 0l-4.25 -15.640621l-4.234375 15.640621l-5.0 0l-4.765625 -19.999996zm46.245605 6.046875l0 10.234375q0.125 1.4843712 2.3125 1.7656212l-0.109375 2.359375q-3.15625 0 -4.765625 -1.609375q-3.59375 1.609375 -7.203125 1.609375q-2.75 0 -4.203125 -1.5625q-1.4375 -1.5625 -1.4375 -4.484371q0 -2.921875 1.484375 -4.296875q1.484375 -1.375 4.640625 -1.703125l6.28125 -0.59375l0 -1.71875q0 -2.046875 -0.890625 -2.921875q-0.875 -0.890625 -2.390625 -0.890625q-3.203125 0 -6.640625 0.40625l-1.234375 0.125l-0.125 -2.28125q4.40625 -0.890625 7.796875 -0.890625q3.40625 0 4.9375 1.5625q1.546875 1.5625 1.546875 4.890625zm-12.3125 8.15625q0 3.6718712 3.03125 3.6718712q2.71875 0 5.359375 -0.9218712l0.921875 -0.3125l0 -6.59375l-5.921875 0.546875q-1.796875 0.171875 -2.59375 1.046875q-0.796875 0.875 -0.796875 2.5625zm18.227478 5.796871l0 -19.999996l2.96875 0l0 2.71875q3.46875 -2.40625 7.3125 -3.15625l0 3.03125q-1.671875 0.328125 -3.5 1.015625q-1.8125 0.671875 -2.78125 1.1875l-1.0 0.515625l0 14.687496l-3.0 0zm27.44934 -2.484375l1.15625 -0.109375l0.078125 2.359375q-4.5625 0.640625 -7.796875 0.640625q-4.328125 0 -6.125 -2.5q-1.796875 -2.4999962 -1.796875 -7.781246q0 -10.53125 8.359375 -10.53125q4.046875 0 6.046875 2.265625q2.0 2.265625 2.0 7.09375l-0.171875 2.28125l-13.1875 0q0 3.328125 1.1875 4.9375q1.203125 1.5937462 4.1875 1.5937462q2.984375 0 6.0625 -0.25zm-1.078125 -8.671871q0 -3.6875 -1.1875 -5.203125q-1.171875 -1.515625 -3.84375 -1.515625q-2.65625 0 -4.0 1.59375q-1.328125 1.59375 -1.375 5.125l10.40625 0zm26.874908 11.156246l-9.875 0l0 -27.687496l9.875 0q6.765625 0 8.953125 5.375q1.28125 3.078125 1.28125 8.078125q0 10.4375 -5.203125 13.156246q-2.078125 1.078125 -5.03125 1.078125zm7.078125 -14.234371q0 -7.96875 -3.5625 -9.921875q-1.4375 -0.796875 -3.515625 -0.796875l-6.796875 0l0 22.234371l6.796875 0q7.078125 0 7.078125 -11.515621zm21.924988 11.749996l1.15625 -0.109375l0.078125 2.359375q-4.5625 0.640625 -7.796875 0.640625q-4.328125 0 -6.125 -2.5q-1.796875 -2.4999962 -1.796875 -7.781246q0 -10.53125 8.359375 -10.53125q4.046875 0 6.046875 2.265625q2.0 2.265625 2.0 7.09375l-0.171875 2.28125l-13.1875 0q0 3.328125 1.1875 4.9375q1.203125 1.5937462 4.1875 1.5937462q2.984375 0 6.0625 -0.25zm-1.078125 -8.671871q0 -3.6875 -1.1875 -5.203125q-1.171875 -1.515625 -3.84375 -1.515625q-2.65625 0 -4.0 1.59375q-1.328125 1.59375 -1.375 5.125l10.40625 0zm5.793762 -8.84375l3.203125 0l4.671875 17.406246l1.484375 0l4.84375 -17.406246l3.078125 0l-5.640625 19.999996l-6.0 0l-5.640625 -19.999996zm34.724365 17.515621l1.15625 -0.109375l0.078125 2.359375q-4.5625 0.640625 -7.796875 0.640625q-4.328125 0 -6.125 -2.5q-1.796875 -2.4999962 -1.796875 -7.781246q0 -10.53125 8.359375 -10.53125q4.046875 0 6.046875 2.265625q2.0 2.265625 2.0 7.09375l-0.171875 2.28125l-13.1875 0q0 3.328125 1.1875 4.9375q1.203125 1.5937462 4.1875 1.5937462q2.984375 0 6.0625 -0.25zm-1.078125 -8.671871q0 -3.6875 -1.1875 -5.203125q-1.171875 -1.515625 -3.84375 -1.515625q-2.65625 0 -4.0 1.59375q-1.328125 1.59375 -1.375 5.125l10.40625 0zm7.918701 11.156246l0 -28.718746l3.0 0l0 28.718746l-3.0 0zm8.11499 -10.031246q0 -5.484375 1.953125 -7.921875q1.96875 -2.453125 6.625 -2.453125q4.65625 0 6.59375 2.453125q1.953125 2.4375 1.953125 7.921875q0 5.46875 -1.84375 7.953121q-1.84375 2.484375 -6.71875 2.484375q-4.875 0 -6.71875 -2.484375q-1.84375 -2.4843712 -1.84375 -7.953121zm3.078125 -0.0625q0 4.375 1.0625 6.140625q1.0625 1.7499962 4.4375 1.7499962q3.375 0 4.421875 -1.7343712q1.046875 -1.75 1.046875 -6.140625q0 -4.40625 -1.171875 -6.0625q-1.15625 -1.65625 -4.296875 -1.65625q-3.140625 0 -4.328125 1.65625q-1.171875 1.65625 -1.171875 6.046875zm18.91687 18.968746l0 -28.874996l2.96875 0l0 1.4375q3.03125 -1.84375 6.0 -1.84375q3.796875 0 5.515625 2.421875q1.71875 2.421875 1.71875 7.984375q0 5.5625 -2.015625 7.984371q-2.015625 2.421875 -6.703125 2.421875q-2.4375 0 -4.484375 -0.453125l0 8.921875l-3.0 0zm8.53125 -26.593746q-1.203125 0 -2.59375 0.40625q-1.375 0.390625 -2.171875 0.796875l-0.765625 0.390625l0 13.484371q2.84375 0.4375 4.328125 0.4375q3.234375 0 4.53125 -1.8281212q1.3125 -1.84375 1.3125 -6.0q0 -4.171875 -1.1875 -5.921875q-1.171875 -1.765625 -3.453125 -1.765625zm15.548706 17.718746l-3.0 0l0 -19.999996l2.96875 0l0 1.40625q3.0 -1.8125 5.84375 -1.8125q3.71875 0 5.1875 2.046875q1.328125 -0.796875 3.421875 -1.421875q2.109375 -0.625 3.703125 -0.625q4.0 0 5.375 2.140625q1.390625 2.140625 1.390625 7.703125l0 10.562496l-3.0 0l0 -10.484371q0 -4.15625 -0.8125 -5.6875q-0.796875 -1.546875 -3.390625 -1.546875q-1.328125 0 -2.734375 0.390625q-1.390625 0.375 -2.140625 0.734375l-0.765625 0.359375q0.515625 1.3125 0.515625 5.828125l0 10.406246l-3.0 0l0 -10.312496q0 -4.328125 -0.78125 -5.859375q-0.78125 -1.546875 -3.421875 -1.546875q-1.28125 0 -2.625 0.390625q-1.328125 0.375 -2.046875 0.734375l-0.6875 0.359375l0 16.234371zm44.049316 -2.484375l1.15625 -0.109375l0.078125 2.359375q-4.5625 0.640625 -7.796875 0.640625q-4.328125 0 -6.125 -2.5q-1.796875 -2.4999962 -1.796875 -7.781246q0 -10.53125 8.359375 -10.53125q4.046875 0 6.046875 2.265625q2.0 2.265625 2.0 7.09375l-0.171875 2.28125l-13.1875 0q0 3.328125 1.1875 4.9375q1.203125 1.5937462 4.1875 1.5937462q2.984375 0 6.0625 -0.25zm-1.078125 -8.671871q0 -3.6875 -1.1875 -5.203125q-1.171875 -1.515625 -3.84375 -1.515625q-2.65625 0 -4.0 1.59375q-1.328125 1.59375 -1.375 5.125l10.40625 0zm10.668701 11.156246l-3.0 0l0 -19.999996l2.96875 0l0 1.40625q3.234375 -1.8125 6.203125 -1.8125q4.0 0 5.375 2.171875q1.375 2.15625 1.375 7.671875l0 10.562496l-2.953125 0l0 -10.484371q0 -4.15625 -0.828125 -5.6875q-0.8125 -1.546875 -3.5 -1.546875q-1.28125 0 -2.703125 0.390625q-1.40625 0.375 -2.171875 0.734375l-0.765625 0.359375l0 16.234371zm28.839355 -17.406246l-6.359375 0l0 9.5625q0 3.4375 0.5 4.53125q0.5 1.0781212 2.390625 1.0781212l3.546875 -0.25l0.203125 2.484375q-2.671875 0.4375 -4.078125 0.4375q-3.125 0 -4.328125 -1.515625q-1.1875 -1.515625 -1.1875 -5.796871l0 -10.53125l-2.84375 0l0 -2.59375l2.84375 0l0 -6.125l2.953125 0l0 6.125l6.359375 0l0 2.59375z" fill-rule="nonzero"></path></g></svg>

